<?xml version="1.0" encoding="UTF-8" standalone="no"?>
<!-- Created with Inkscape (http://www.inkscape.org/) -->
<svg xmlns:inkscape="http://www.inkscape.org/namespaces/inkscape" xmlns:rdf="http://www.w3.org/1999/02/22-rdf-syntax-ns#" xmlns="http://www.w3.org/2000/svg" xmlns:xlink="http://www.w3.org/1999/xlink" xmlns:ns1="http://sozi.baierouge.fr" xmlns:cc="http://creativecommons.org/ns#" xmlns:sodipodi="http://sodipodi.sourceforge.net/DTD/sodipodi-0.dtd" xmlns:dc="http://purl.org/dc/elements/1.1/" id="svg2" xml:space="preserve" viewBox="0 0 44.25 44.25" version="1.1" inkscape:version="0.91 r13725">
  <defs id="defs6">
    <linearGradient id="linearGradient24" y2="-1.3447" gradientUnits="userSpaceOnUse" x2="27.626" gradientTransform="matrix(.8392 -.90248 -.90376 -.838 1.5997 33.402)" y1="-1.3447" x1="22.372">
      <stop id="stop26" style="stop-color:#524218" offset="0"/>
      <stop id="stop28" style="stop-color:#805d15" offset="1"/>
    </linearGradient>
    <linearGradient id="linearGradient42" y2="-1.4297" gradientUnits="userSpaceOnUse" x2="32.327" gradientTransform="matrix(.83816 -.90344 -.90472 -.83696 1.6007 33.4)" y1="-1.4297" x1="24.455">
      <stop id="stop44" style="stop-color:#705a21" offset="0"/>
      <stop id="stop46" style="stop-color:#a1741b" offset="1"/>
    </linearGradient>
    <linearGradient id="linearGradient60" y2=".43990" gradientUnits="userSpaceOnUse" x2="31.356" gradientTransform="matrix(.8376 -.90392 -.9052 -.83648 1.5999 33.4)" y1=".43990" x1="24.51">
      <stop id="stop62" style="stop-color:#523c1a" offset="0"/>
      <stop id="stop64" style="stop-color:#a1741b" offset="1"/>
    </linearGradient>
    <linearGradient id="linearGradient78" y2="15.198" gradientUnits="userSpaceOnUse" x2="18.856" gradientTransform="matrix(1.2333 0 0 -1.2316 1.5999 33.4)" y1="24.023" x1="22.631">
      <stop id="stop80" style="stop-color:#ffc859" offset="0"/>
      <stop id="stop82" style="stop-color:#a1741b" offset="1"/>
    </linearGradient>
    <linearGradient id="linearGradient96" y2="7.2549" gradientUnits="userSpaceOnUse" x2="23.921" gradientTransform="matrix(.84008 -.90168 -.90288 -.83896 1.5994 33.4)" y1="7.2549" x1="14.599">
      <stop id="stop98" style="stop-color:#8c7b2a" offset="0"/>
      <stop id="stop100" style="stop-color:#a1741b" offset="1"/>
    </linearGradient>
    <linearGradient id="linearGradient114" y2="7.6816" gradientUnits="userSpaceOnUse" x2="22.794" gradientTransform="matrix(.84176 -.90016 -.90136 -.84056 1.6004 33.4)" y1="7.6816" x1="18.142">
      <stop id="stop116" style="stop-color:#706323" offset="0"/>
      <stop id="stop118" style="stop-color:#a1741b" offset="1"/>
    </linearGradient>
    <linearGradient id="linearGradient132" y2="7.3906" gradientUnits="userSpaceOnUse" x2="24.403" gradientTransform="matrix(.838 -.9036 -.90488 -.8368 1.5995 33.399)" y1="7.3906" x1="14.727">
      <stop id="stop134" style="stop-color:#ffc859" offset="0"/>
      <stop id="stop136" style="stop-color:#a1741b" offset="1"/>
    </linearGradient>
    <linearGradient id="linearGradient150" y2="4.9575" gradientUnits="userSpaceOnUse" x2="27.154" gradientTransform="matrix(.83744 -.90408 -.90536 -.83632 1.5999 33.4)" y1="4.9575" x1="21.706">
      <stop id="stop152" style="stop-color:#8c702a" offset="0"/>
      <stop id="stop154" style="stop-color:#a1741b" offset="1"/>
    </linearGradient>
    <linearGradient id="linearGradient168" y2="3.3721" gradientUnits="userSpaceOnUse" x2="26.276" gradientTransform="matrix(.83648 -.90496 -.90624 -.83536 1.6 33.399)" y1="3.3721" x1="22.295">
      <stop id="stop170" style="stop-color:#705123" offset="0"/>
      <stop id="stop172" style="stop-color:#a1741b" offset="1"/>
    </linearGradient>
    <linearGradient id="linearGradient186" y2="8.3252" gradientUnits="userSpaceOnUse" x2="27.176" gradientTransform="matrix(.83864 -.90304 -.90424 -.83744 1.5991 33.401)" y1="8.3252" x1="21.073">
      <stop id="stop188" style="stop-color:#ffc859" offset="0"/>
      <stop id="stop190" style="stop-color:#a1741b" offset="1"/>
    </linearGradient>
    <radialGradient id="radialGradient204" gradientUnits="userSpaceOnUse" cy="1.6616" cx="12.323" gradientTransform="matrix(.62848 -1.0597 1.0611 .6276 -1.9275 31.314)" r="4.489">
      <stop id="stop206" style="stop-color:#ffa34d" offset="0"/>
      <stop id="stop208" style="stop-color:#cc4b14" offset="1"/>
    </radialGradient>
    <radialGradient id="radialGradient222" gradientUnits="userSpaceOnUse" cy="-10.169" cx="18.901" gradientTransform="matrix(.63024 -1.0586 1.0601 .62936 23.159 46.201)" r="4.2316">
      <stop id="stop224" style="stop-color:#ffa34d" offset="0"/>
      <stop id="stop226" style="stop-color:#cc4b14" offset="1"/>
    </radialGradient>
    <radialGradient id="radialGradient240" gradientUnits="userSpaceOnUse" cy="-10.449" cx="9.7178" gradientTransform="matrix(.63128 -1.058 1.0594 .6304 23.741 46.574)" r="4.176">
      <stop id="stop242" style="stop-color:#ffa34d" offset="0"/>
      <stop id="stop244" style="stop-color:#cc4b14" offset="1"/>
    </radialGradient>
    <radialGradient id="radialGradient258" gradientUnits="userSpaceOnUse" cy="-2.4097" cx="7.9961" gradientTransform="matrix(.6288 -1.0594 1.061 .62792 6.7138 36.427)" r="5.1729">
      <stop id="stop260" style="stop-color:#ffa34d" offset="0"/>
      <stop id="stop262" style="stop-color:#cc4b14" offset="1"/>
    </radialGradient>
    <radialGradient id="radialGradient276" gradientUnits="userSpaceOnUse" cy="-7.1821" cx="6.8105" gradientTransform="matrix(.62848 -1.0597 1.0611 .6276 16.842 42.414)" r="4.489">
      <stop id="stop278" style="stop-color:#ffa34d" offset="0"/>
      <stop id="stop280" style="stop-color:#cc4b14" offset="1"/>
    </radialGradient>
    <radialGradient id="radialGradient294" gradientUnits="userSpaceOnUse" cy="-10.27" cx="14.027" gradientTransform="matrix(.63088 -1.0582 1.0597 .63 23.366 46.34)" r="4.9606">
      <stop id="stop296" style="stop-color:#ffa34d" offset="0"/>
      <stop id="stop298" style="stop-color:#cc4b14" offset="1"/>
    </radialGradient>
    <radialGradient id="radialGradient312" gradientUnits="userSpaceOnUse" cy=".0469" cx="15.152" gradientTransform="matrix(.63 -1.0588 1.0602 .62912 1.5002 33.34)" r="5.0164">
      <stop id="stop314" style="stop-color:#ffa34d" offset="0"/>
      <stop id="stop316" style="stop-color:#cc4b14" offset="1"/>
    </radialGradient>
    <radialGradient id="radialGradient330" gradientUnits="userSpaceOnUse" cy="-7.5098" cx="19.467" gradientTransform="matrix(.62992 -1.0588 1.0602 .62912 17.524 42.848)" r="4.4783">
      <stop id="stop332" style="stop-color:#ffa34d" offset="0"/>
      <stop id="stop334" style="stop-color:#cc4b14" offset="1"/>
    </radialGradient>
    <radialGradient id="radialGradient348" gradientUnits="userSpaceOnUse" cy="-2.8081" cx="17.892" gradientTransform="matrix(.62968 -1.059 1.0604 .62888 7.5547 36.932)" r="5.19">
      <stop id="stop350" style="stop-color:#ffa34d" offset="0"/>
      <stop id="stop352" style="stop-color:#cc4b14" offset="1"/>
    </radialGradient>
    <radialGradient id="radialGradient366" gradientUnits="userSpaceOnUse" cy="-6.875" cx="8.792" gradientTransform="matrix(.6296 -1.059 1.0604 .6288 16.182 42.044)" r="4.6519">
      <stop id="stop368" style="stop-color:#ffa34d" offset="0"/>
      <stop id="stop370" style="stop-color:#cc4b14" offset="1"/>
    </radialGradient>
    <radialGradient id="radialGradient384" gradientUnits="userSpaceOnUse" cy="-1.9233" cx="11.732" gradientTransform="matrix(.6304 -1.0586 1.06 .62952 5.6773 35.821)" r="4.9885">
      <stop id="stop386" style="stop-color:#ffa34d" offset="0"/>
      <stop id="stop388" style="stop-color:#cc4b14" offset="1"/>
    </radialGradient>
    <radialGradient id="radialGradient402" gradientUnits="userSpaceOnUse" cy="-7.0142" cx="14.338" gradientTransform="matrix(.62944 -1.0591 1.0606 .62864 16.477 42.219)" r="4.5062">
      <stop id="stop404" style="stop-color:#ffa34d" offset="0"/>
      <stop id="stop406" style="stop-color:#cc4b14" offset="1"/>
    </radialGradient>
    <clipPath id="clipPath414">
      <path id="path416" d="m9 20.4h3v4h-3v-4z" inkscape:connector-curvature="0"/>
    </clipPath>
    <mask id="mask418">
      <g id="g420">
        <g id="g422" clip-path="url(#clipPath414)">
          <path id="path424" style="fill:#000000;fill-opacity:.28130" d="m9 20.4h3v4h-3v-4z" inkscape:connector-curvature="0"/>
        </g>
      </g>
    </mask>
    <clipPath id="clipPath430">
      <path id="path432" d="m9 20.4h3v4h-3v-4z" inkscape:connector-curvature="0"/>
    </clipPath>
    <clipPath id="clipPath434">
      <path id="path436" d="m9 21h3v4h-3v-4z" inkscape:connector-curvature="0"/>
    </clipPath>
    <clipPath id="clipPath458">
      <path id="path460" d="m6 24.4h4v5h-4v-5z" inkscape:connector-curvature="0"/>
    </clipPath>
    <mask id="mask462">
      <g id="g464">
        <g id="g466" clip-path="url(#clipPath458)">
          <path id="path468" style="fill:#000000;fill-opacity:.28130" d="m6 24.4h4v5h-4v-5z" inkscape:connector-curvature="0"/>
        </g>
      </g>
    </mask>
    <clipPath id="clipPath474">
      <path id="path476" d="m6 24.4h4v5h-4v-5z" inkscape:connector-curvature="0"/>
    </clipPath>
    <clipPath id="clipPath478">
      <path id="path480" d="m6 25h4v5h-4v-5z" inkscape:connector-curvature="0"/>
    </clipPath>
    <clipPath id="clipPath502">
      <path id="path504" d="m5 16.4h3v5h-3v-5z" inkscape:connector-curvature="0"/>
    </clipPath>
    <mask id="mask506">
      <g id="g508">
        <g id="g510" clip-path="url(#clipPath502)">
          <path id="path512" style="fill:#000000;fill-opacity:.28130" d="m5 16.4h3v5h-3v-5z" inkscape:connector-curvature="0"/>
        </g>
      </g>
    </mask>
    <clipPath id="clipPath518">
      <path id="path520" d="m5 16.4h3v5h-3v-5z" inkscape:connector-curvature="0"/>
    </clipPath>
    <clipPath id="clipPath522">
      <path id="path524" d="m5 17h3v5h-3v-5z" inkscape:connector-curvature="0"/>
    </clipPath>
    <clipPath id="clipPath546">
      <path id="path548" d="m11 30.4h4v3h-4v-3z" inkscape:connector-curvature="0"/>
    </clipPath>
    <mask id="mask550">
      <g id="g552">
        <g id="g554" clip-path="url(#clipPath546)">
          <path id="path556" style="fill:#000000;fill-opacity:.28130" d="m11 30.4h4v3h-4v-3z" inkscape:connector-curvature="0"/>
        </g>
      </g>
    </mask>
    <clipPath id="clipPath562">
      <path id="path564" d="m11 30.4h4v3h-4v-3z" inkscape:connector-curvature="0"/>
    </clipPath>
    <clipPath id="clipPath566">
      <path id="path568" d="m11 31h4v3h-4v-3z" inkscape:connector-curvature="0"/>
    </clipPath>
    <clipPath id="clipPath590">
      <path id="path592" d="m12 26.4h4v4h-4v-4z" inkscape:connector-curvature="0"/>
    </clipPath>
    <mask id="mask594">
      <g id="g596">
        <g id="g598" clip-path="url(#clipPath590)">
          <path id="path600" style="fill:#000000;fill-opacity:.28130" d="m12 26.4h4v4h-4v-4z" inkscape:connector-curvature="0"/>
        </g>
      </g>
    </mask>
    <clipPath id="clipPath606">
      <path id="path608" d="m12 26.4h4v4h-4v-4z" inkscape:connector-curvature="0"/>
    </clipPath>
    <clipPath id="clipPath610">
      <path id="path612" d="m12 27h4v4h-4v-4z" inkscape:connector-curvature="0"/>
    </clipPath>
    <clipPath id="clipPath634">
      <path id="path636" d="m17 20.4h3v4h-3v-4z" inkscape:connector-curvature="0"/>
    </clipPath>
    <mask id="mask638">
      <g id="g640">
        <g id="g642" clip-path="url(#clipPath634)">
          <path id="path644" style="fill:#000000;fill-opacity:.28130" d="m17 20.4h3v4h-3v-4z" inkscape:connector-curvature="0"/>
        </g>
      </g>
    </mask>
    <clipPath id="clipPath650">
      <path id="path652" d="m17 20.4h3v4h-3v-4z" inkscape:connector-curvature="0"/>
    </clipPath>
    <clipPath id="clipPath654">
      <path id="path656" d="m17 21h3v4h-3v-4z" inkscape:connector-curvature="0"/>
    </clipPath>
    <clipPath id="clipPath678">
      <path id="path680" d="m8 13.4h3v4h-3v-4z" inkscape:connector-curvature="0"/>
    </clipPath>
    <mask id="mask682">
      <g id="g684">
        <g id="g686" clip-path="url(#clipPath678)">
          <path id="path688" style="fill:#000000;fill-opacity:.28130" d="m8 13.4h3v4h-3v-4z" inkscape:connector-curvature="0"/>
        </g>
      </g>
    </mask>
    <clipPath id="clipPath694">
      <path id="path696" d="m8 13.4h3v4h-3v-4z" inkscape:connector-curvature="0"/>
    </clipPath>
    <clipPath id="clipPath698">
      <path id="path700" d="m8 14h3v4h-3v-4z" inkscape:connector-curvature="0"/>
    </clipPath>
    <clipPath id="clipPath722">
      <path id="path724" d="m14 12.4h3v5h-3v-5z" inkscape:connector-curvature="0"/>
    </clipPath>
    <mask id="mask726">
      <g id="g728">
        <g id="g730" clip-path="url(#clipPath722)">
          <path id="path732" style="fill:#000000;fill-opacity:.28130" d="m14 12.4h3v5h-3v-5z" inkscape:connector-curvature="0"/>
        </g>
      </g>
    </mask>
    <clipPath id="clipPath738">
      <path id="path740" d="m14 12.4h3v5h-3v-5z" inkscape:connector-curvature="0"/>
    </clipPath>
    <clipPath id="clipPath742">
      <path id="path744" d="m14 13h3v5h-3v-5z" inkscape:connector-curvature="0"/>
    </clipPath>
    <clipPath id="clipPath766">
      <path id="path768" d="m19 29.4h3v3h-3v-3z" inkscape:connector-curvature="0"/>
    </clipPath>
    <mask id="mask770">
      <g id="g772">
        <g id="g774" clip-path="url(#clipPath766)">
          <path id="path776" style="fill:#000000;fill-opacity:.28130" d="m19 29.4h3v3h-3v-3z" inkscape:connector-curvature="0"/>
        </g>
      </g>
    </mask>
    <clipPath id="clipPath782">
      <path id="path784" d="m19 29.4h3v3h-3v-3z" inkscape:connector-curvature="0"/>
    </clipPath>
    <clipPath id="clipPath786">
      <path id="path788" d="m19 30h3v3h-3v-3z" inkscape:connector-curvature="0"/>
    </clipPath>
    <clipPath id="clipPath810">
      <path id="path812" d="m22 24.4h4v3h-4v-3z" inkscape:connector-curvature="0"/>
    </clipPath>
    <mask id="mask814">
      <g id="g816">
        <g id="g818" clip-path="url(#clipPath810)">
          <path id="path820" style="fill:#000000;fill-opacity:.28130" d="m22 24.4h4v3h-4v-3z" inkscape:connector-curvature="0"/>
        </g>
      </g>
    </mask>
    <clipPath id="clipPath826">
      <path id="path828" d="m22 24.4h4v3h-4v-3z" inkscape:connector-curvature="0"/>
    </clipPath>
    <clipPath id="clipPath830">
      <path id="path832" d="m22 25h4v3h-4v-3z" inkscape:connector-curvature="0"/>
    </clipPath>
    <clipPath id="clipPath854">
      <path id="path856" d="m22 13.4h2v4h-2v-4z" inkscape:connector-curvature="0"/>
    </clipPath>
    <mask id="mask858">
      <g id="g860">
        <g id="g862" clip-path="url(#clipPath854)">
          <path id="path864" style="fill:#000000;fill-opacity:.28130" d="m22 13.4h2v4h-2v-4z" inkscape:connector-curvature="0"/>
        </g>
      </g>
    </mask>
    <clipPath id="clipPath870">
      <path id="path872" d="m22 13.4h2v4h-2v-4z" inkscape:connector-curvature="0"/>
    </clipPath>
    <clipPath id="clipPath874">
      <path id="path876" d="m22 14h2v4h-2v-4z" inkscape:connector-curvature="0"/>
    </clipPath>
  </defs>
  <g id="g10" transform="matrix(1.25 0 0 -1.25 0 44.25)">
    <g id="g12">
      <g id="g14">
        <g id="g16">
          <g id="g22">
            <path id="path30" style="fill-rule:evenodd;fill:url(#linearGradient24)" d="m20.469 12.216-0.246 2.711 1.601 0.493v-1.911c0.25-1.394 0.864-2.277 1.852-2.648 0.988-0.367 1.933-0.203 2.836 0.492 0.453 0.371 0.8 0.781 1.05 1.235-0.164-0.7-0.515-1.356-1.05-1.973-1.028-1.274-2.364-1.746-4.008-1.418-1.027 0.207-1.707 1.215-2.035 3.019z" inkscape:connector-curvature="0"/>
          </g>
        </g>
      </g>
      <g id="g32">
        <g id="g34">
          <g id="g40">
            <path id="path48" style="fill-rule:evenodd;fill:url(#linearGradient42)" d="m32.738 9.63c-0.285-0.945-0.84-1.828-1.664-2.648-1.683-1.723-3.863-2.359-6.535-1.91-1.684 0.289-2.797 1.683-3.332 4.187l-0.367 3.633 2.59 0.617 0.062-2.648c0.328-1.848 1.293-3.016 2.899-3.512 1.601-0.531 3.144-0.308 4.621 0.68 0.742 0.492 1.316 1.027 1.726 1.601z" inkscape:connector-curvature="0"/>
          </g>
        </g>
      </g>
      <g id="g50">
        <g id="g52">
          <g id="g58">
            <path id="path66" style="fill-rule:evenodd;fill:url(#linearGradient60)" d="m22.875 12.646-0.125-1.723c0.082-1.273 0.473-2.214 1.172-2.832 1.191-0.984 2.531-1.5 4.008-1.539-1.11-0.289-2.094-0.183-2.957 0.309-0.578 0.328-1.133 0.758-1.668 1.293l-0.614 0.738 0.247-1.23c0.367-0.864 1.066-1.375 2.093-1.539 1.645-0.328 2.758-0.371 3.332-0.125-1.644-0.821-3.226-0.782-4.75 0.125-1.027 0.613-1.828 1.64-2.406 3.078-0.492 1.23-0.676 2.176-0.551 2.832 0.039 0.41 0.43 0.637 1.172 0.676 0.367 0 0.719-0.02 1.047-0.063z" inkscape:connector-curvature="0"/>
          </g>
        </g>
      </g>
      <g id="g68">
        <g id="g70">
          <g id="g76">
            <path id="path84" style="fill-rule:evenodd;fill:url(#linearGradient78)" d="m33.605 12.955-0.125-4.742c-0.656-3.282-2.406-5.11-5.242-5.481-4.234-0.617-7.07 1.148-8.508 5.297-0.414 1.273-0.535 2.566-0.371 3.879l0.309 1.601 1.234-0.121 0.555-3.082c0.531-2.215 1.25-3.613 2.156-4.187 2.672-1.723 5.117-1.352 7.34 1.109 1.602 1.809 2.485 3.715 2.652 5.727z" inkscape:connector-curvature="0"/>
          </g>
        </g>
      </g>
      <g id="g86">
        <g id="g88">
          <g id="g94">
            <path id="path102" style="fill-rule:evenodd;fill:url(#linearGradient96)" d="m12.637 15.295 3.207-1.661c-0.246-3.285-0.68-5.48-1.297-6.589-0.656-1.067-1.109-1.868-1.356-2.403-1.355-0.449-2.961-0.226-4.808 0.68-1.848 0.941-4.11 3.18-6.781 6.711 1.066-1.356 2.32-2.465 3.761-3.324 2.875-1.809 5.219-1.602 7.028 0.613 1.48 1.726 1.953 3.246 1.418 4.558l-1.172 1.415z" inkscape:connector-curvature="0"/>
          </g>
        </g>
      </g>
      <g id="g104">
        <g id="g106">
          <g id="g112">
            <path id="path120" style="fill-rule:evenodd;fill:url(#linearGradient114)" d="m7.828 6.244-1.543 1.047c0.988-0.453 2.344-0.7 4.07-0.739 1.028-0.043 1.891 0.286 2.59 0.985l0.68 0.984-1.109-0.738c-0.578-0.363-1.45-0.57-2.621-0.617 0.589 0.086 1.175 0.293 1.757 0.617l0.309 0.183c1.109 0.782 1.809 2.055 2.094 3.821 0.207 0.246 0.39 0.429 0.554 0.551 0.371 0.289 0.555 0.101 0.555-0.551 0-1.071-0.223-2.199-0.676-3.387-0.578-1.562-1.379-2.59-2.406-3.082-0.984-0.449-2.406-0.141-4.254 0.926z" inkscape:connector-curvature="0"/>
          </g>
        </g>
      </g>
      <g id="g122">
        <g id="g124">
          <g id="g130">
            <path id="path138" style="fill-rule:evenodd;fill:url(#linearGradient132)" d="m8.566 3.841c-2.093 0.7-3.882 2.282-5.363 4.743l-1.601 3.449c0.656-1.192 1.89-2.547 3.699-4.067 1.398-1.148 2.773-1.804 4.129-1.968 1.359-0.164 2.531 0.164 3.515 0.984 0.825 0.699 1.356 2.176 1.602 4.434l0.062 3.203 1.172 0.246 0.555-1.539c0.371-1.274 0.434-2.567 0.187-3.883-0.328-1.926-1.109-3.469-2.343-4.617-1.52-1.434-3.391-1.766-5.614-0.985z" inkscape:connector-curvature="0"/>
          </g>
        </g>
      </g>
      <g id="g140">
        <g id="g142">
          <g id="g148">
            <path id="path156" style="fill-rule:evenodd;fill:url(#linearGradient150)" d="m21.824 14.248-0.183-3.508c-0.329-2.586-0.985-4.453-1.973-5.606-1.809-2.175-3.66-3.386-5.551-3.632l-2.344 0.246c1.192 0.535 1.954 1.027 2.282 1.48 0.168 0.203 0.636 1.352 1.418 3.445 0.578 1.52 0.761 2.836 0.554 3.946l-0.429 1.168 6.226 2.461z" inkscape:connector-curvature="0"/>
          </g>
        </g>
      </g>
      <g id="g158">
        <g id="g160">
          <g id="g166">
            <path id="path174" style="fill-rule:evenodd;fill:url(#linearGradient168)" d="m20.223 10.123c-0.289-0.121-0.598-0.145-0.926-0.063v-0.555l-0.555-1.414c-0.328-0.945-0.844-1.765-1.543-2.464 0.289 0.328 0.578 0.945 0.863 1.847 0.168 0.574 0.25 1.211 0.25 1.91l-0.062 0.864-0.434-1.356c-0.164-0.773-0.636-1.777-1.418-3.019 0.309 0.582 0.555 1.175 0.743 1.789 0.246 0.859 0.308 1.785 0.183 2.769l-0.308 1.172 4.75 0.985c0.039-1.274-0.352-2.833-1.172-4.684-0.735-1.649-2.039-3.004-3.918-4.063 0.832 0.512 1.601 1.25 2.312 2.219 0.864 1.231 1.399 2.668 1.606 4.309l-0.371-0.246z" inkscape:connector-curvature="0"/>
          </g>
        </g>
      </g>
      <g id="g176">
        <g id="g178">
          <g id="g184">
            <path id="path192" style="fill-rule:evenodd;fill:url(#linearGradient186)" d="m9.371 7.353 1.418-1.664c1.356-1.109 3-1.66 4.934-1.66 1.558 0 2.918 0.387 4.066 1.168-0.656-0.781-1.457-1.5-2.402-2.156-1.934-1.395-3.68-1.868-5.242-1.414-1.891 0.531-2.918 1.64-3.083 3.324l0.309 2.402z" inkscape:connector-curvature="0"/>
          </g>
        </g>
      </g>
      <g id="g194">
        <g id="g196">
          <g id="g202">
            <path id="path210" style="fill-rule:evenodd;fill:url(#radialGradient204)" d="m7.828 22.193c1.684-0.125 2.899-1.109 3.637-2.957 0.742-1.684 0.781-2.875 0.125-3.57-0.824-0.985-1.645-1.602-2.465-1.848-1.277-0.41-2.387 0.121-3.332 1.602-0.988 1.601-1.129 3.179-0.434 4.742 0.661 1.433 1.481 2.113 2.469 2.031z" inkscape:connector-curvature="0"/>
          </g>
        </g>
      </g>
      <g id="g212">
        <g id="g214">
          <g id="g220">
            <path id="path228" style="fill-rule:evenodd;fill:url(#radialGradient222)" d="m25.402 22.564c0.7 0.203 1.399-0.207 2.098-1.234 0.738-1.11 1.008-2.297 0.801-3.571-0.617-3.246-2.199-4.168-4.75-2.773-1.438 0.82-1.93 2.18-1.481 4.066 0.453 1.887 1.563 3.059 3.332 3.512z" inkscape:connector-curvature="0"/>
          </g>
        </g>
      </g>
      <g id="g230">
        <g id="g232">
          <g id="g238">
            <path id="path246" style="fill-rule:evenodd;fill:url(#radialGradient240)" d="m16.707 31.306c0.656 0.739 1.852 0.985 3.578 0.739 1.934-0.286 3.043-1.313 3.328-3.079 0.289-1.808-0.246-2.976-1.601-3.511-1.11-0.45-2.364-0.41-3.762 0.125-1.109 0.41-1.828 1.25-2.16 2.523-0.367 1.317-0.164 2.383 0.617 3.203z" inkscape:connector-curvature="0"/>
          </g>
        </g>
      </g>
      <g id="g248">
        <g id="g250">
          <g id="g256">
            <path id="path264" style="fill-rule:evenodd;fill:url(#radialGradient258)" d="m13.008 28.658c1.851-0.781 2.406-2.258 1.664-4.434-0.738-2.133-2.055-3.344-3.945-3.633-1.766-0.285-3.145 0.289-4.133 1.723-1.028 1.438-1.172 2.938-0.43 4.496 0.781 1.645 1.871 2.528 3.266 2.649 0.945 0.082 2.14-0.184 3.578-0.801z" inkscape:connector-curvature="0"/>
          </g>
        </g>
      </g>
      <g id="g266">
        <g id="g268">
          <g id="g274">
            <path id="path282" style="fill-rule:evenodd;fill:url(#radialGradient276)" d="m11.898 26.318c-0.945 0.492-1.398 1.602-1.355 3.324 0.039 1.852 0.945 3.02 2.711 3.512 2.016 0.535 3.476 0.184 4.379-1.047 0.699-0.984 0.945-2.176 0.742-3.57-0.125-1.192-0.762-2.074-1.914-2.649-1.356-0.617-2.879-0.472-4.563 0.43z" inkscape:connector-curvature="0"/>
          </g>
        </g>
      </g>
      <g id="g284">
        <g id="g286">
          <g id="g292">
            <path id="path300" style="fill-rule:evenodd;fill:url(#radialGradient294)" d="m21.641 27.857c1.152 0.492 2.3 0.246 3.453-0.738 1.109-0.985 1.625-2.156 1.543-3.512-0.082-1.394-0.496-2.504-1.235-3.324-0.824-0.903-1.972-1.274-3.453-1.11-1.851 0.207-3.043 1.356-3.578 3.45-0.574 2.3 0.516 4.043 3.27 5.234z" inkscape:connector-curvature="0"/>
          </g>
        </g>
      </g>
      <g id="g302">
        <g id="g304">
          <g id="g310">
            <path id="path318" style="fill-rule:evenodd;fill:url(#radialGradient312)" d="m12.391 20.283c2.136-0.699 3.433-1.496 3.886-2.403 0.368-0.859 0.164-2.195-0.617-4-0.699-1.683-1.89-2.523-3.578-2.523-1.644 0.039-2.836 0.797-3.574 2.277-0.867 1.723-0.824 3.387 0.121 4.989 0.945 1.597 2.199 2.152 3.762 1.66z" inkscape:connector-curvature="0"/>
          </g>
        </g>
      </g>
      <g id="g320">
        <g id="g322">
          <g id="g328">
            <path id="path336" style="fill-rule:evenodd;fill:url(#radialGradient330)" d="m22.629 20.466c2.258-0.656 3.371-2.07 3.328-4.246 0-2.136-0.945-3.55-2.836-4.25-1.519-0.574-2.57-0.164-3.144 1.231-0.289 0.699-0.497 1.929-0.618 3.695-0.082 0.945 0.227 1.828 0.922 2.649 0.742 0.82 1.524 1.128 2.348 0.921z" inkscape:connector-curvature="0"/>
          </g>
        </g>
      </g>
      <g id="g338">
        <g id="g340">
          <g id="g346">
            <path id="path354" style="fill-rule:evenodd;fill:url(#radialGradient348)" d="m20.223 17.822c2.179-3.203 2.054-5.461-0.371-6.777-2.344-1.313-4.336-1.211-5.981 0.308-1.191 1.152-1.664 2.567-1.418 4.25 0.246 1.563 0.902 2.567 1.973 3.02 2.715 1.105 4.644 0.84 5.797-0.801z" inkscape:connector-curvature="0"/>
          </g>
        </g>
      </g>
      <g id="g356">
        <g id="g358">
          <g id="g364">
            <path id="path372" style="fill-rule:evenodd;fill:url(#radialGradient366)" d="m15.168 23.67c-0.207 0.125-0.926 0.351-2.16 0.675-0.985 0.25-1.582 0.578-1.789 0.989-0.328 0.695-0.309 1.558 0.062 2.586 0.492 1.23 1.418 2.113 2.778 2.648 1.394 0.492 2.648 0.43 3.757-0.188 0.825-0.41 1.461-1.003 1.914-1.785 0.411-0.695 0.512-1.433 0.309-2.215-0.164-0.781-0.555-1.191-1.172-1.234-0.492-0.039-1.254-0.285-2.281-0.738l-1.418-0.738z" inkscape:connector-curvature="0"/>
          </g>
        </g>
      </g>
      <g id="g374">
        <g id="g376">
          <g id="g382">
            <path id="path390" style="fill-rule:evenodd;fill:url(#radialGradient384)" d="m15.352 24.287c0.328-0.328 0.492-1.149 0.492-2.465 0-0.695-0.02-1.539-0.063-2.524 0-0.492-0.058-0.839-0.183-1.046-0.164-0.372-0.618-0.84-1.356-1.418-0.988-0.696-1.625-1.024-1.914-0.985-0.531 0-1.437 0.656-2.711 1.973-1.07 1.109-1.523 2.461-1.359 4.062 0.164 1.481 0.66 2.485 1.48 3.02 0.824 0.492 1.789 0.676 2.899 0.551 1.109-0.082 2.015-0.469 2.715-1.168z" inkscape:connector-curvature="0"/>
          </g>
        </g>
      </g>
      <g id="g392">
        <g id="g394">
          <g id="g400">
            <path id="path408" style="fill-rule:evenodd;fill:url(#radialGradient402)" d="m20.715 25.334c1.441-0.821 1.976-2.606 1.605-5.36-0.125-1.105-0.328-1.886-0.617-2.34-0.328-0.41-0.801-0.636-1.418-0.675-0.617-0.043-1.398 0.101-2.344 0.429-0.906 0.289-1.519 0.598-1.851 0.926-0.41 0.41-0.617 2.152-0.617 5.234 0 0.821 0.535 1.395 1.605 1.723 0.617 0.207 1.274 0.309 1.973 0.309 0.738 0.039 1.297-0.043 1.664-0.246z" inkscape:connector-curvature="0"/>
          </g>
        </g>
      </g>
      <g id="g410">
        <g id="g426" mask="url(#mask418)">
          <g id="g438">
            <g id="g440" clip-path="url(#clipPath430)">
              <g id="g442" transform="translate(0 -0.6)">
                <g id="g446">
                  <g id="g448" clip-path="url(#clipPath434)">
                    <g id="g450">
                      <path id="path452" style="fill-rule:evenodd;fill:#fff59e" d="m10.898 24.82c1.028 0.164 1.254-0.472 0.68-1.91-0.617-1.476-1.172-1.91-1.668-1.293-0.449 0.531-0.555 1.168-0.308 1.91 0.25 0.778 0.679 1.207 1.296 1.293z" inkscape:connector-curvature="0"/>
                    </g>
                  </g>
                </g>
              </g>
            </g>
          </g>
        </g>
      </g>
      <g id="g454">
        <g id="g470" mask="url(#mask462)">
          <g id="g482">
            <g id="g484" clip-path="url(#clipPath474)">
              <g id="g486" transform="translate(0 -0.6)">
                <g id="g490">
                  <g id="g492" clip-path="url(#clipPath478)">
                    <g id="g494">
                      <path id="path496" style="fill-rule:evenodd;fill:#fff59e" d="m8.855 29.078c1.028-0.203 1.051-0.883 0.063-2.031-1.07-1.192-1.746-1.414-2.035-0.676-0.246 0.656-0.121 1.293 0.371 1.91 0.492 0.657 1.027 0.922 1.601 0.797z" inkscape:connector-curvature="0"/>
                    </g>
                  </g>
                </g>
              </g>
            </g>
          </g>
        </g>
      </g>
      <g id="g498">
        <g id="g514" mask="url(#mask506)">
          <g id="g526">
            <g id="g528" clip-path="url(#clipPath518)">
              <g id="g530" transform="translate(0 -0.6)">
                <g id="g534">
                  <g id="g536" clip-path="url(#clipPath522)">
                    <g id="g538">
                      <path id="path540" style="fill-rule:evenodd;fill:#fff59e" d="m6.547 21.098c0.781 0.207 0.988-0.41 0.617-1.848-0.371-1.516-0.762-1.992-1.172-1.414-0.41 0.492-0.535 1.129-0.371 1.906 0.164 0.781 0.473 1.235 0.926 1.356z" inkscape:connector-curvature="0"/>
                    </g>
                  </g>
                </g>
              </g>
            </g>
          </g>
        </g>
      </g>
      <g id="g542">
        <g id="g558" mask="url(#mask550)">
          <g id="g570">
            <g id="g572" clip-path="url(#clipPath562)">
              <g id="g574" transform="translate(0 -0.6)">
                <g id="g578">
                  <g id="g580" clip-path="url(#clipPath566)">
                    <g id="g582">
                      <path id="path584" style="fill-rule:evenodd;fill:#fff59e" d="m14.52 33.355c0.492-0.367 0.082-0.859-1.235-1.476-1.394-0.656-1.949-0.699-1.664-0.125 0.246 0.535 0.719 0.988 1.418 1.355 0.66 0.371 1.152 0.453 1.481 0.246z" inkscape:connector-curvature="0"/>
                    </g>
                  </g>
                </g>
              </g>
            </g>
          </g>
        </g>
      </g>
      <g id="g586">
        <g id="g602" mask="url(#mask594)">
          <g id="g614">
            <g id="g616" clip-path="url(#clipPath606)">
              <g id="g618" transform="translate(0 -0.6)">
                <g id="g622">
                  <g id="g624" clip-path="url(#clipPath610)">
                    <g id="g626">
                      <path id="path628" style="fill-rule:evenodd;fill:#fff59e" d="m15.27 30.316c0.988-0.41 0.843-1.046-0.43-1.91-1.317-0.941-2.035-1.023-2.16-0.246-0.082 0.656 0.183 1.254 0.8 1.785 0.618 0.535 1.215 0.66 1.79 0.371z" inkscape:connector-curvature="0"/>
                    </g>
                  </g>
                </g>
              </g>
            </g>
          </g>
        </g>
      </g>
      <g id="g630">
        <g id="g646" mask="url(#mask638)">
          <g id="g658">
            <g id="g660" clip-path="url(#clipPath650)">
              <g id="g662" transform="translate(0 -0.6)">
                <g id="g666">
                  <g id="g668" clip-path="url(#clipPath654)">
                    <g id="g670">
                      <path id="path672" style="fill-rule:evenodd;fill:#fff59e" d="m19.215 22.973c-0.246-1.559-0.676-2.114-1.293-1.661-0.574 0.411-0.844 1.004-0.801 1.786 0.082 0.82 0.41 1.355 0.984 1.601 0.946 0.367 1.317-0.207 1.11-1.726z" inkscape:connector-curvature="0"/>
                    </g>
                  </g>
                </g>
              </g>
            </g>
          </g>
        </g>
      </g>
      <g id="g674">
        <g id="g690" mask="url(#mask682)">
          <g id="g702">
            <g id="g704" clip-path="url(#clipPath694)">
              <g id="g706" transform="translate(0 -0.6)">
                <g id="g710">
                  <g id="g712" clip-path="url(#clipPath698)">
                    <g id="g714">
                      <path id="path716" style="fill-rule:evenodd;fill:#fff59e" d="m10.082 15.816c-0.086-1.394-0.352-1.886-0.805-1.476s-0.675 0.984-0.675 1.722c0 0.7 0.203 1.149 0.617 1.356 0.656 0.285 0.945-0.246 0.863-1.602z" inkscape:connector-curvature="0"/>
                    </g>
                  </g>
                </g>
              </g>
            </g>
          </g>
        </g>
      </g>
      <g id="g718">
        <g id="g734" mask="url(#mask726)">
          <g id="g746">
            <g id="g748" clip-path="url(#clipPath738)">
              <g id="g750" transform="translate(0 -0.6)">
                <g id="g754">
                  <g id="g756" clip-path="url(#clipPath742)">
                    <g id="g758">
                      <path id="path760" style="fill-rule:evenodd;fill:#fff59e" d="m16.809 15.398c0.043-1.722-0.348-2.46-1.172-2.214-0.782 0.164-1.235 0.675-1.356 1.539-0.082 0.82 0.184 1.476 0.801 1.968 1.07 0.739 1.645 0.309 1.727-1.293z" inkscape:connector-curvature="0"/>
                    </g>
                  </g>
                </g>
              </g>
            </g>
          </g>
        </g>
      </g>
      <g id="g762">
        <g id="g778" mask="url(#mask770)">
          <g id="g790">
            <g id="g792" clip-path="url(#clipPath782)">
              <g id="g794" transform="translate(0 -0.6)">
                <g id="g798">
                  <g id="g800" clip-path="url(#clipPath786)">
                    <g id="g802">
                      <path id="path804" style="fill-rule:evenodd;fill:#fff59e" d="m20.543 30.809c-0.906 0.328-1.133 0.675-0.68 1.046 0.289 0.207 0.66 0.207 1.11 0 0.453-0.164 0.699-0.453 0.742-0.863 0.082-0.449-0.309-0.512-1.172-0.183z" inkscape:connector-curvature="0"/>
                    </g>
                  </g>
                </g>
              </g>
            </g>
          </g>
        </g>
      </g>
      <g id="g806">
        <g id="g822" mask="url(#mask814)">
          <g id="g834">
            <g id="g836" clip-path="url(#clipPath826)">
              <g id="g838" transform="translate(0 -0.6)">
                <g id="g842">
                  <g id="g844" clip-path="url(#clipPath830)">
                    <g id="g846">
                      <path id="path848" style="fill-rule:evenodd;fill:#fff59e" d="m23.383 25.996c-1.028 0.781-1.192 1.313-0.492 1.602 0.41 0.203 0.882 0.082 1.418-0.371 0.535-0.45 0.781-0.965 0.738-1.539-0.039-0.618-0.594-0.512-1.664 0.308z" inkscape:connector-curvature="0"/>
                    </g>
                  </g>
                </g>
              </g>
            </g>
          </g>
        </g>
      </g>
      <g id="g850">
        <g id="g866" mask="url(#mask858)">
          <g id="g878">
            <g id="g880" clip-path="url(#clipPath870)">
              <g id="g882" transform="translate(0 -0.6)">
                <g id="g886">
                  <g id="g888" clip-path="url(#clipPath874)">
                    <g id="g890">
                      <path id="path892" style="fill-rule:evenodd;fill:#fff59e" d="m22.594 15.871c-0.578 1.352-0.617 2.008-0.125 1.969 0.328-0.039 0.617-0.43 0.863-1.168 0.285-0.742 0.391-1.399 0.309-1.973-0.082-0.617-0.434-0.226-1.047 1.172z" inkscape:connector-curvature="0"/>
                    </g>
                  </g>
                </g>
              </g>
            </g>
          </g>
        </g>
      </g>
    </g>
  </g>
<metadata><rdf:RDF><cc:Work><dc:format>image/svg+xml</dc:format><dc:type rdf:resource="http://purl.org/dc/dcmitype/StillImage"/><cc:license rdf:resource="http://creativecommons.org/licenses/publicdomain/"/><dc:publisher><cc:Agent rdf:about="http://openclipart.org/"><dc:title>Openclipart</dc:title></cc:Agent></dc:publisher></cc:Work><cc:License rdf:about="http://creativecommons.org/licenses/publicdomain/"><cc:permits rdf:resource="http://creativecommons.org/ns#Reproduction"/><cc:permits rdf:resource="http://creativecommons.org/ns#Distribution"/><cc:permits rdf:resource="http://creativecommons.org/ns#DerivativeWorks"/></cc:License></rdf:RDF></metadata></svg>
