<?xml version="1.0" encoding="UTF-8" standalone="no"?>
<!-- Created with Inkscape (http://www.inkscape.org/) -->
<svg xmlns:inkscape="http://www.inkscape.org/namespaces/inkscape" xmlns:rdf="http://www.w3.org/1999/02/22-rdf-syntax-ns#" xmlns="http://www.w3.org/2000/svg" xmlns:xlink="http://www.w3.org/1999/xlink" xmlns:ns1="http://sozi.baierouge.fr" xmlns:cc="http://creativecommons.org/ns#" xmlns:sodipodi="http://sodipodi.sourceforge.net/DTD/sodipodi-0.dtd" xmlns:dc="http://purl.org/dc/elements/1.1/" id="svg2" xml:space="preserve" viewBox="0 0 39.225 42.298" version="1.1" inkscape:version="0.91 r13725">
  <defs id="defs6">
    <linearGradient id="linearGradient24" y2="-8.312" gradientUnits="userSpaceOnUse" x2="-8.6988" gradientTransform="matrix(-.60424 .52432 .52432 .60424 .00024033 33.838)" y1="-8.312" x1="-13.2">
      <stop id="stop26" style="stop-color:#ffd073" offset="0"/>
      <stop id="stop28" style="stop-color:#e07c3a" offset="1"/>
    </linearGradient>
    <linearGradient id="linearGradient42" y2="10.418" gradientUnits="userSpaceOnUse" x2="18.034" gradientTransform="matrix(.7456 -.28992 -.28992 -.7456 -1.8357e-7 33.838)" y1="10.418" x1="4.9971">
      <stop id="stop44" style="stop-color:#ffd073" offset="0"/>
      <stop id="stop46" style="stop-color:#e07c3a" offset="1"/>
    </linearGradient>
    <linearGradient id="linearGradient60" y2="9.7441" gradientUnits="userSpaceOnUse" x2="13.472" gradientTransform="matrix(.79752 .06344 .06344 -.79752 .000039609 33.838)" y1="9.7441" x1="9.0576">
      <stop id="stop62" style="stop-color:#ffd073" offset="0"/>
      <stop id="stop64" style="stop-color:#e07c3a" offset="1"/>
    </linearGradient>
    <linearGradient id="linearGradient78" y2="13.794" gradientUnits="userSpaceOnUse" x2="10.866" gradientTransform="matrix(.79744 .06408 .06408 -.79744 .00011155 33.838)" y1="13.794" x1="3.0664">
      <stop id="stop80" style="stop-color:#ffd073" offset="0"/>
      <stop id="stop82" style="stop-color:#e07c3a" offset="1"/>
    </linearGradient>
    <linearGradient id="linearGradient96" y2="4.6943" gradientUnits="userSpaceOnUse" x2="-15.724" gradientTransform="matrix(-.57792 .5532 .5532 .57792 .00016909 33.839)" y1="4.6943" x1="-19.773">
      <stop id="stop98" style="stop-color:#ffd073" offset="0"/>
      <stop id="stop100" style="stop-color:#e07c3a" offset="1"/>
    </linearGradient>
    <linearGradient id="linearGradient114" y2="11.899" gradientUnits="userSpaceOnUse" x2="15.489" gradientTransform="matrix(.79744 .06408 .06408 -.79744 .000054569 33.838)" y1="11.899" x1="10.498">
      <stop id="stop116" style="stop-color:#ffd073" offset="0"/>
      <stop id="stop118" style="stop-color:#e07c3a" offset="1"/>
    </linearGradient>
    <linearGradient id="linearGradient132" y2="6.3833" gradientUnits="userSpaceOnUse" x2="14.823" gradientTransform="matrix(.79184 -.11384 -.11384 -.79184 -.00014473 33.838)" y1="6.3833" x1="6.918">
      <stop id="stop134" style="stop-color:#ffd073" offset="0"/>
      <stop id="stop136" style="stop-color:#e07c3a" offset="1"/>
    </linearGradient>
    <radialGradient id="radialGradient152" gradientUnits="userSpaceOnUse" cy="21.9" cx="18" gradientTransform="matrix(.8 0 0 -.8 -1.8357e-7 33.838)" r="23.738">
      <stop id="stop154" style="stop-color:#ffd073" offset="0"/>
      <stop id="stop156" style="stop-color:#c7882a" offset="1"/>
    </radialGradient>
    <radialGradient id="radialGradient172" gradientUnits="userSpaceOnUse" cy="-.39210" cx="19.497" gradientTransform="matrix(.52744 -.60144 .60144 .52744 .47168 34.252)" r="30.409">
      <stop id="stop174" style="stop-color:#e3a84b" offset="0"/>
      <stop id="stop176" style="stop-color:#bf743f" offset="1"/>
    </radialGradient>
    <radialGradient id="radialGradient244" gradientUnits="userSpaceOnUse" cy="-.3867" cx="19.497" gradientTransform="matrix(.52768 -.60136 .60136 .52768 .46488 34.246)" r="30.399">
      <stop id="stop246" style="stop-color:#e3a84b" offset="0"/>
      <stop id="stop248" style="stop-color:#bf743f" offset="1"/>
    </radialGradient>
    <clipPath id="clipPath256">
      <path id="path258" d="m9-0.16176h22v24h-22v-24z" inkscape:connector-curvature="0"/>
    </clipPath>
    <mask id="mask260">
      <g id="g262">
        <g id="g264" clip-path="url(#clipPath256)">
          <path id="path266" style="fill:#000000;fill-opacity:0.0703" d="m9-0.16176h22v24h-22v-24z" inkscape:connector-curvature="0"/>
        </g>
      </g>
    </mask>
    <clipPath id="clipPath272">
      <path id="path274" d="m9-0.16176h22v24h-22v-24z" inkscape:connector-curvature="0"/>
    </clipPath>
    <clipPath id="clipPath276">
      <path id="path278" d="m9 0h22v24h-22v-24z" inkscape:connector-curvature="0"/>
    </clipPath>
    <linearGradient id="linearGradient306" y2="-5.834" gradientUnits="userSpaceOnUse" x2="-16.34" gradientTransform="matrix(-.67496 .42952 .42952 .67496 -.00021123 33.839)" y1="-5.834" x1="-21.556">
      <stop id="stop308" style="stop-color:#ffd073" offset="0"/>
      <stop id="stop310" style="stop-color:#e07c3a" offset="1"/>
    </linearGradient>
    <linearGradient id="linearGradient324" y2="15.135" gradientUnits="userSpaceOnUse" x2="12.968" gradientTransform="matrix(.79736 .06464 .06464 -.79736 -.00021261 33.838)" y1="15.135" x1="5.5439">
      <stop id="stop326" style="stop-color:#ffd073" offset="0"/>
      <stop id="stop328" style="stop-color:#e07c3a" offset="1"/>
    </linearGradient>
    <linearGradient id="linearGradient344" y2="-19.997" gradientUnits="userSpaceOnUse" x2="-45.779" gradientTransform="matrix(-.7292 .32896 .32896 .7292 .00014106 33.838)" y1="-19.997" x1="-51.676">
      <stop id="stop346" style="stop-color:#ffb94f" offset="0"/>
      <stop id="stop348" style="stop-color:#917130" offset="1"/>
    </linearGradient>
    <linearGradient id="linearGradient362" y2="10.393" gradientUnits="userSpaceOnUse" x2="-47.265" gradientTransform="matrix(-.41312 .68512 .68512 .41312 .000099098 33.839)" y1="10.393" x1="-53.074">
      <stop id="stop364" style="stop-color:#ffb94f" offset="0"/>
      <stop id="stop366" style="stop-color:#a68137" offset="1"/>
    </linearGradient>
  </defs>
  <g id="g10" transform="matrix(1.25 0 0 -1.25 0 42.298)">
    <g id="g12">
      <g id="g14">
        <g id="g16">
          <g id="g22">
            <path id="path30" style="fill-rule:evenodd;fill:url(#linearGradient24)" d="m1.961 24.397 1.18 0.043c-0.61-0.043-1.086-0.242-1.422-0.602-0.344-0.347-0.438-0.695-0.278-1.039 0.211-0.402 0.957-0.855 2.239-1.359-0.293 0-1.055 0.199-2.282 0.597-0.746 0.243-1.199 0.586-1.359 1.04l-0.039 0.601c0.453 0.348 1.105 0.586 1.961 0.719z" inkscape:connector-curvature="0"/>
          </g>
        </g>
      </g>
      <g id="g32">
        <g id="g34">
          <g id="g40">
            <path id="path48" style="fill-rule:evenodd;fill:url(#linearGradient42)" d="m9.078 22.838c0.082-2.426 0.11-3.535 0.082-3.32-1.387 2.508-2.773 3.988-4.16 4.441-0.879 0.266-1.973 0.293-3.281 0.078-0.664-0.078-1.239-0.199-1.719-0.359 0.055 0.16 0.238 0.32 0.559 0.481 0.586 0.32 1.496 0.519 2.722 0.601 1.227 0.051 2.399-0.176 3.52-0.683 0.64-0.293 1.398-0.704 2.277-1.239z" inkscape:connector-curvature="0"/>
          </g>
        </g>
      </g>
      <g id="g50">
        <g id="g52">
          <g id="g58">
            <path id="path66" style="fill-rule:evenodd;fill:url(#linearGradient60)" d="m8.32 30.44c0.133 0.023 0.2-0.055 0.2-0.242-0.028-0.188 0.027-0.305 0.16-0.36 0.132-0.027 0.281 0.067 0.441 0.281 0.238 0.321 0.824 0.719 1.758 1.2l-0.758-1.922c-0.375-0.852-0.574-1.68-0.601-2.481-0.028-0.664 0.054-1.476 0.242-2.437 0.133-0.695 0.332-1.082 0.597-1.16 0.696-0.188 1.094-0.321 1.2-0.403 0.453-0.293 0.281-0.437-0.52-0.437-0.746 0-1.344 0.265-1.801 0.801-0.476 0.586-0.89 1.746-1.238 3.48-0.348 1.68-0.414 2.719-0.199 3.117 0.187 0.348 0.359 0.535 0.519 0.563z" inkscape:connector-curvature="0"/>
          </g>
        </g>
      </g>
      <g id="g68">
        <g id="g70">
          <g id="g76">
            <path id="path84" style="fill-rule:evenodd;fill:url(#linearGradient78)" d="m8.039 24.678c0.535-0.371 0.934-0.734 1.199-1.078 0.137-0.215 0.254-0.441 0.364-0.684 0.105-0.211-0.122-0.773-0.68-1.679 0.133 0.695-0.188 1.363-0.961 2-0.883 0.722-1.934 0.922-3.16 0.601-0.535-0.16-1.016-0.519-1.442-1.078 0.028 0.371 0.161 0.785 0.403 1.238 0.371 0.801 0.785 1.266 1.238 1.399 1.066 0.187 2.078-0.051 3.039-0.719z" inkscape:connector-curvature="0"/>
          </g>
        </g>
      </g>
      <g id="g86">
        <g id="g88">
          <g id="g94">
            <path id="path102" style="fill-rule:evenodd;fill:url(#linearGradient96)" d="m10.32 27.397c0.188 0.453 0.586 0.762 1.2 0.922 0.507 0.16 0.96 0.187 1.359 0.078 0.402-0.078 0.547-0.68 0.441-1.797-0.215 0.504-0.535 0.906-0.961 1.199-0.238 0.16-0.679 0.094-1.32-0.199-0.504-0.215-0.746-0.281-0.719-0.203z" inkscape:connector-curvature="0"/>
          </g>
        </g>
      </g>
      <g id="g104">
        <g id="g106">
          <g id="g112">
            <path id="path120" style="fill-rule:evenodd;fill:url(#linearGradient114)" d="m9.52 22.319c-0.399 1.414-0.481 2.679-0.239 3.8 0.266 1.305 0.957 2.051 2.078 2.239 0.641 0.16 1.149 0.176 1.52 0.039-0.16 0.055-0.371 0.027-0.641-0.078-0.504-0.16-1-0.586-1.476-1.282-0.563-0.824-0.856-1.718-0.883-2.679-0.024-0.906 0.187-1.574 0.641-2 0.585-0.559 0.253-0.574-1-0.039z" inkscape:connector-curvature="0"/>
          </g>
        </g>
      </g>
      <g id="g122">
        <g id="g124">
          <g id="g130">
            <path id="path138" style="fill-rule:evenodd;fill:url(#linearGradient132)" d="m5.961 33.838c-0.16-1.601-0.121-2.801 0.117-3.601 0.16-0.504 0.508-1.321 1.043-2.438 0.559-1.496 1.504-3.094 2.84-4.801l0.199-1.761c-0.32-0.078-0.586 0.16-0.801 0.722-0.027 0.078-0.547 0.641-1.558 1.68-0.989 1.039-1.735 2.172-2.242 3.398-0.532 1.254-0.625 2.762-0.278 4.52 0.184 0.883 0.414 1.641 0.68 2.281z" inkscape:connector-curvature="0"/>
          </g>
        </g>
      </g>
      <path id="path140" style="fill-rule:evenodd;fill:#997032" d="m22.922 24.077c1.945-0.426 3.851-1.543 5.719-3.36 2.132-2.078 3.011-5.078 2.636-9-0.371-4.293-2.289-7.504-5.757-9.64-3.012-1.813-6.055-2.438-9.122-1.879-2.558 0.48-4.839 1.695-6.839 3.64-1.625 1.574-2.571 3.508-2.84 5.801-0.266 1.945-0.024 4.012 0.722 6.199l1.637 5.121c-0.156 1.332-0.051 2.16 0.32 2.481 0.215 0.183 0.43 0.226 0.641 0.117l0.762-0.238c0.933-0.082 2.426 0.066 4.48 0.441 3.254 0.586 5.797 0.692 7.641 0.317z" inkscape:connector-curvature="0"/>
      <g id="g142">
        <g id="g144">
          <g id="g150">
            <path id="path158" style="fill-rule:evenodd;fill:url(#radialGradient152)" d="m22.281 24.037c1.891-0.398 3.731-1.492 5.52-3.277 2.051-2.027 2.918-4.961 2.597-8.801-0.371-4.187-2.226-7.308-5.558-9.359-2.906-1.789-5.84-2.402-8.801-1.84-2.48 0.449-4.68 1.637-6.598 3.559-1.574 1.547-2.496 3.441-2.761 5.679-0.239 1.868-0.012 3.879 0.679 6.039l1.602 4.961c-0.16 1.305-0.055 2.133 0.32 2.481 0.184 0.16 0.387 0.187 0.598 0.078l0.723-0.238c0.906-0.082 2.343 0.066 4.32 0.441 3.117 0.586 5.57 0.68 7.359 0.277z" inkscape:connector-curvature="0"/>
          </g>
        </g>
      </g>
      <path id="path160" style="fill-rule:evenodd;fill:#ffd9a0" d="m20.238 19.119c0.082 0.239 0.137 0.426 0.16 0.559 0.055 0.16 0.161 0.215 0.321 0.16 0.082 0 0.269-0.054 0.562-0.16 0.239-0.051 0.399-0.051 0.481 0 0.023 0 0.093 0.082 0.199 0.238 0.105 0.137 0.465 0.254 1.078 0.364 0.32 0.05 0.508 0.132 0.563 0.238l-0.122-0.281c-0.082-0.16-0.187-0.211-0.32-0.16l-0.719-0.317 0.121-0.402c0.051-0.188 0.012-0.281-0.121-0.281-0.293 0.082-0.586 0.16-0.879 0.242-0.347 0.078-0.507 0.039-0.48-0.121 0-0.106 0.066-0.321 0.199-0.641 0.078-0.266 0.039-0.492-0.121-0.68-0.16-0.16-0.387-0.226-0.68-0.199-0.292 0.027-0.519-0.027-0.679-0.16-0.133-0.106-0.305-0.32-0.52-0.641-0.265-0.371 0.078-1.066 1.039-2.078-0.531 0.184-1.132 0.52-1.8 1-0.426 0.293-0.774 0.371-1.04 0.238l-0.32-0.32 0.36-0.437c0.269-0.321 0.628-1.028 1.082-2.121l-0.204 0.398c-0.05 0.16-0.425 0.426-1.117 0.801l-1 0.519 0.399-0.558c0.265-0.375 0.547-1.016 0.84-1.918-0.426 0.211-0.786 0.547-1.079 1-0.187 0.265-0.48 0.476-0.882 0.636l-0.52 0.2 0.242-0.797c0.133-0.375 0.266-0.895 0.399-1.563-0.321 0.723-0.692 1.242-1.121 1.563-0.266 0.183-0.559 0.32-0.879 0.398l-0.399 0.078 0.16-0.679c0.079-0.293 0.094-0.864 0.039-1.719l-0.242 0.441-0.957 1.239 0.078-1.36c0.028-0.48 0.215-1.051 0.563-1.719l-0.883 1.083c-0.211 0.265-0.371 0.652-0.48 1.16l-0.118 0.675 0.321-3.039c0.144-1.136 0.242-1.757 0.297-1.859l-0.778 0.777c-0.32 0.321-0.629 0.762-0.922 1.321l-0.359 0.722 0.039-1.402c0.055-0.531 0.414-1.266 1.082-2.199l-0.762 0.801c-0.32 0.32-0.64 0.746-0.961 1.281l-0.398 0.719 0.039-0.321c0.027-0.238 0.176-0.707 0.441-1.398l-0.558 1.078c-0.242 0.453-0.402 0.934-0.481 1.441l-0.121 2.321 0.121-1.161c0.106-0.32 0.278-0.507 0.52-0.558l0.277 1.355c0.082 0.457 0.309 0.922 0.684 1.403 0.078 0.105 0.117 0.121 0.117 0.039 0-0.239 0.027-0.453 0.082-0.641 0.133-0.371 0.266-0.57 0.399-0.598-0.028 0.559 0 1.028 0.082 1.399 0.05 0.242 0.16 0.508 0.32 0.801l0.238 0.398 0.238-0.558c0.161-0.348 0.348-0.426 0.563-0.243 0.105 0.403 0.144 0.75 0.117 1.043l0.043 1.36 0.238-0.559c0.215-0.402 0.442-0.734 0.68-1 0.402-0.43 0.613-0.48 0.641-0.16l-0.2 0.598 0.04 1.082 0.32-0.719c0.105-0.27 0.226-0.309 0.359-0.121l-0.359 1.121c-0.051 0.156-0.094 0.398-0.121 0.719v0.437l1.043-1.48c0.316-0.477 0.57-0.571 0.758-0.278-0.051 0.211-0.172 0.504-0.36 0.879l-0.801 1.199 1.52-0.64c0.668-0.293 0.976-0.414 0.922-0.36l-0.082 0.122-0.879 0.8 1.238-0.32c0.348-0.133 0.563-0.242 0.641-0.32 0.082-0.055 0.16-0.149 0.242-0.282 0.133-0.21 0.16 0.055 0.078 0.801-0.027 0.106 0.106 0.199 0.402 0.281 0.161 0.024 0.305 0.04 0.438 0.04l0.402-0.2c0.293-0.132 0.504-0.187 0.641-0.16 0.156 0 0.266 0.106 0.316 0.32z" inkscape:connector-curvature="0"/>
      <g id="g162">
        <g id="g164">
          <g id="g170">
            <path id="path178" style="fill-rule:evenodd;fill:url(#radialGradient172)" d="m7.52 16.518 1.441 4.48c-0.106-0.48-0.375-1.586-0.801-3.32-0.375-1.785-0.519-3.414-0.441-4.879 0.109-1.789 0.562-3.519 1.359-5.199 0.883-1.816 2.016-3.227 3.402-4.242 1.442-1.094 3.454-1.801 6.04-2.121 0.585-0.071 1.113-0.125 1.582-0.16-3.047-0.043-5.707 0.636-7.981 2.042-3.894 2.426-5.426 6.891-4.601 13.399z" inkscape:connector-curvature="0"/>
          </g>
        </g>
      </g>
      <g id="g180">
        <g id="g182">
          <g id="g188">
            <path id="path196" style="fill:url(#radialGradient172);fill-rule:evenodd" d="m9.719 23.6c0.082-0.563 0.136-2.27 0.16-5.121 0.055-2.586 0.226-4.563 0.519-5.918 0.563-2.563 1.27-4.414 2.122-5.563 1.335-1.839 3.601-3.265 6.8-4.281 1.575-0.504 3.535-0.465 5.879 0.121l-0.199-0.16c-3.465-1.012-7.172-0.305-11.121 2.121-1.547 0.961-2.774 2.707-3.68 5.238-0.691 1.973-1.027 3.723-1 5.243 0.055 1.679 0.094 3.027 0.121 4.039 0.055 1.867 0.028 3.254-0.082 4.16 0.137 0.078 0.297 0.121 0.481 0.121z" inkscape:connector-curvature="0"/>
          </g>
        </g>
      </g>
      <g id="g198">
        <g id="g200">
          <g id="g206">
            <path id="path214" style="fill:url(#radialGradient172);fill-rule:evenodd" d="m11.719 16.397c-1.094 3.734-1.84 6.121-2.239 7.16 0.133 0.055 0.239 0.055 0.321 0 1.519-5.465 3.277-9.707 5.277-12.719 1.281-1.922 3.336-3.625 6.16-5.121 0.907-0.48 2.551-1.199 4.922-2.156l-0.121-0.121c-2.027 0.797-3.387 1.371-4.078 1.719-2.106 1.039-4 2.281-5.68 3.718-1.761 1.496-3.281 4-4.562 7.52z" inkscape:connector-curvature="0"/>
          </g>
        </g>
      </g>
      <g id="g216">
        <g id="g218">
          <g id="g224">
            <path id="path232" style="fill:url(#radialGradient172);fill-rule:evenodd" d="m11.641 23.319c0.453-0.375 1.093-0.762 1.918-1.16 3.363-1.575 5.226-2.481 5.601-2.719 2.961-1.789 5.149-3.949 6.559-6.481 0.801-1.468 1.359-3.015 1.679-4.64 0.243-1.336 0.282-2.481 0.122-3.442l-0.2-0.238c0.293 2.426-0.121 4.813-1.242 7.16-2.133 4.613-6.531 7.961-13.199 10.039-0.691 0.215-1.305 0.707-1.84 1.481h0.602z" inkscape:connector-curvature="0"/>
          </g>
        </g>
      </g>
      <g id="g234">
        <g id="g236">
          <g id="g242">
            <path id="path250" style="fill-rule:evenodd;fill:url(#radialGradient244)" d="m22.121 22.28c2.16-0.774 3.934-1.973 5.32-3.602 1.25-1.465 1.957-3.027 2.118-4.68 0.242-2.347-0.118-4.949-1.079-7.8l-0.402-0.598c0.293 0.504 0.563 1.383 0.801 2.637 0.266 1.386 0.426 2.867 0.48 4.441 0.188 4.055-2.386 7.16-7.718 9.32-1.149 0.481-2.36 0.879-3.641 1.2-1.52 0.402-2.68 0.562-3.48 0.48l0.64 0.121c2.586-0.293 4.906-0.801 6.961-1.519z" inkscape:connector-curvature="0"/>
          </g>
        </g>
      </g>
      <g id="g252">
        <g id="g268" mask="url(#mask260)">
          <g id="g280">
            <g id="g282" clip-path="url(#clipPath272)">
              <g id="g284" transform="translate(0 -.16176)">
                <g id="g288">
                  <g id="g290" clip-path="url(#clipPath276)">
                    <g id="g292">
                      <path id="path294" style="fill-rule:evenodd;fill:#000000" d="m27.801 20.922c2.051-2.027 2.918-4.961 2.597-8.801-0.371-4.187-2.226-7.309-5.558-9.359-2.852-1.762-5.746-2.387-8.68-1.883-2.426 0.426-4.601 1.562-6.519 3.402 1.839-0.668 3.597-1.015 5.281-1.043 1.973-0.05 3.398 0.364 4.277 1.242 1.867 1.868 3.961 3.559 6.281 5.079 0.829 0.535 1.387 1.707 1.68 3.519 0.293 1.922 0.199 3.844-0.281 5.762-0.531 2.105-1.438 3.68-2.719 4.719 1.281-0.586 2.492-1.465 3.641-2.637z" inkscape:connector-curvature="0"/>
                    </g>
                  </g>
                </g>
              </g>
            </g>
          </g>
        </g>
      </g>
      <g id="g296">
        <g id="g298">
          <g id="g304">
            <path id="path312" style="fill-rule:evenodd;fill:url(#linearGradient306)" d="m5.961 22.479c0.211 0.293 0.398 0.519 0.559 0.68 0.32 0.293 0.679 0.48 1.082 0.558 0.613 0.11 1.757-0.023 3.437-0.398l-0.918-0.602c-0.535-0.183-0.906-0.254-1.121-0.199-0.105 0.027-0.16-0.078-0.16-0.32 0.027-0.133 0.055-0.254 0.082-0.36-0.188 0.614-0.563 0.946-1.121 1-0.348 0.028-0.762-0.027-1.242-0.16l-0.598-0.199z" inkscape:connector-curvature="0"/>
          </g>
        </g>
      </g>
      <g id="g314">
        <g id="g316">
          <g id="g322">
            <path id="path330" style="fill-rule:evenodd;fill:url(#linearGradient324)" d="m7.68 23.44c-0.961-0.082-1.52-0.641-1.68-1.68-0.105-0.508-0.105-1.016 0-1.523-0.188 0.136-0.332 0.347-0.441 0.64-0.239 0.586-0.172 1.293 0.203 2.121 0.398 0.852 1.05 1.266 1.957 1.239 0.535-0.024 1.308-0.254 2.32-0.68l1.242-0.359h-0.761c-0.348 0.082-0.625 0.148-0.84 0.199-0.426 0.082-1.094 0.094-2 0.043z" inkscape:connector-curvature="0"/>
          </g>
        </g>
      </g>
      <path id="path332" style="fill-rule:evenodd;fill:#997032" d="m25.238 4.198c0.188 0.054 0.387 0.093 0.602 0.121-0.453-0.028-0.625 0.105-0.52 0.398 0.082 0.16 0.266 0.32 0.559 0.481 0.133 0.054 0.269 0.105 0.402 0.16l0.199 0.558c0.082 0.215 0.348 0.442 0.801 0.684 0.16 0.078 0.266 0.078 0.321 0 0.183-0.215 0.304-0.336 0.359-0.359 0.184-0.137 0.266-0.149 0.238-0.043-0.027 0.269-0.011 0.453 0.039 0.562l0.403 0.641c0.05 0.051 0.093 0.039 0.121-0.043 0.023-0.184 0.05-0.305 0.078-0.36 0.027-0.105 0.082-0.132 0.16-0.082 0.055 0.055 0.133 0.161 0.238 0.321 0.215 0.269 0.364 0.336 0.442 0.203 0.027-0.055-0.039-0.336-0.2-0.84-0.132-0.43-0.121-0.602 0.04-0.523 0.242 0.136 0.32 0.07 0.242-0.2-0.11-0.238-0.27-0.425-0.485-0.558-0.183-0.106-0.304-0.227-0.355-0.36l-0.121-0.402c-0.133-0.371-0.442-0.625-0.922-0.758-0.133-0.027-0.481-0.32-1.039-0.883-0.375-0.398-0.828-0.625-1.36-0.679-0.214-0.028-0.226 0.054-0.039 0.242l0.321 0.281c-0.43-0.187-0.774-0.254-1.043-0.203-0.16 0.027-0.133 0.148 0.082 0.359l0.359 0.321c-0.375-0.16-0.652-0.172-0.84-0.039-0.132 0.105 0 0.226 0.399 0.359 0.183 0.047 0.363 0.094 0.543 0.141-0.34-0.079-0.532-0.032-0.582 0.14-0.028 0.133 0.16 0.254 0.558 0.36z" inkscape:connector-curvature="0"/>
      <g id="g334">
        <g id="g336">
          <g id="g342">
            <path id="path350" style="fill-rule:evenodd;fill:url(#linearGradient344)" d="m30.32 5.44c-0.109 0.023-0.215-0.016-0.32-0.121l-0.16-0.16 0.16 0.039c0.133 0 0.227-0.024 0.281-0.079 0.106-0.082 0.36-0.066 0.758 0.04-0.051-0.082-0.25-0.172-0.598-0.282-0.242-0.078-0.496-0.117-0.761-0.117h-0.321l0.403-0.199c0.316-0.109 0.613-0.16 0.879-0.16 0.394 0.023 0.64 0.117 0.738 0.277-0.219-0.406-0.625-0.684-1.219-0.84-0.371-0.105-0.746-0.133-1.121-0.078l-0.437 0.117 0.718-0.597c0.215-0.133 0.414-0.176 0.602-0.121-0.082-0.082-0.348-0.133-0.801-0.161-0.293-0.027-0.559 0.028-0.801 0.161l-0.32 0.199 0.16-0.758c0-0.297-0.105-0.402-0.32-0.32 0.082 0.05 0.082 0.16 0 0.32-0.028 0.105-0.106 0.211-0.238 0.316l-0.204 0.121 0.082-0.281 0.122-1.16-0.84 0.84-0.485-1.117v0.597l-0.039 0.161c0 0.214-0.066 0.535-0.199 0.96-0.105 0.348-0.078 0.68 0.082 1 0.078 0.188 0.266 0.454 0.559 0.801 0.398 0.481 0.972 0.785 1.718 0.922 0.536 0.051 1.293-0.016 2.282-0.203-0.078-0.16-0.2-0.199-0.36-0.117z" inkscape:connector-curvature="0"/>
          </g>
        </g>
      </g>
      <g id="g352">
        <g id="g354">
          <g id="g360">
            <path id="path368" style="fill-rule:evenodd;fill:url(#linearGradient362)" d="m26.398 4.678c0.696 0.668 1.309 1.027 1.84 1.082 0.43 0.078 0.91 0.09 1.442 0.039l-0.36-0.039c-0.109 0-0.199-0.043-0.281-0.121l-0.078-0.121 0.238-0.117c0.16-0.082 0.332-0.071 0.52 0.039l-0.321-0.199c-0.21-0.137-0.507-0.243-0.878-0.321l0.281-0.363c0.109-0.164 0.23-0.25 0.359-0.258l-0.082-0.019-1.277 0.078 0.039-0.16 0.039-0.399c0.055-0.238 0-0.398-0.156-0.48 0 0.082-0.082 0.199-0.243 0.359l-0.519 0.238-0.082-0.797c0-0.402-0.051-0.855-0.16-1.359l-0.078 0.637-0.243 0.883-0.078-0.442c0-0.187-0.132-0.508-0.398-0.961l0.078 0.321c0.027 0.132 0.012 0.347-0.039 0.64-0.082 0.453-0.121 0.692-0.121 0.719-0.028 0.348 0.16 0.723 0.558 1.121z" inkscape:connector-curvature="0"/>
          </g>
        </g>
      </g>
    </g>
  </g>
<metadata><rdf:RDF><cc:Work><dc:format>image/svg+xml</dc:format><dc:type rdf:resource="http://purl.org/dc/dcmitype/StillImage"/><cc:license rdf:resource="http://creativecommons.org/licenses/publicdomain/"/><dc:publisher><cc:Agent rdf:about="http://openclipart.org/"><dc:title>Openclipart</dc:title></cc:Agent></dc:publisher></cc:Work><cc:License rdf:about="http://creativecommons.org/licenses/publicdomain/"><cc:permits rdf:resource="http://creativecommons.org/ns#Reproduction"/><cc:permits rdf:resource="http://creativecommons.org/ns#Distribution"/><cc:permits rdf:resource="http://creativecommons.org/ns#DerivativeWorks"/></cc:License></rdf:RDF></metadata></svg>
