<?xml version="1.0" encoding="UTF-8" standalone="no"?>
<!-- Created with Inkscape (http://www.inkscape.org/) -->
<svg xmlns:inkscape="http://www.inkscape.org/namespaces/inkscape" xmlns:rdf="http://www.w3.org/1999/02/22-rdf-syntax-ns#" xmlns="http://www.w3.org/2000/svg" xmlns:xlink="http://www.w3.org/1999/xlink" xmlns:ns1="http://sozi.baierouge.fr" xmlns:cc="http://creativecommons.org/ns#" xmlns:sodipodi="http://sodipodi.sourceforge.net/DTD/sodipodi-0.dtd" xmlns:dc="http://purl.org/dc/elements/1.1/" id="svg2" xml:space="preserve" viewBox="0 0 38.371 35.627" version="1.1" inkscape:version="0.91 r13725">
  <defs id="defs6">
    <radialGradient id="radialGradient24" gradientUnits="userSpaceOnUse" cy="-16398" cx="98.965" gradientTransform="matrix(-.007552 -.63994 -1.5575 .018432 -25524 389.14)" r="4.0628">
      <stop id="stop26" style="stop-color:#f5dc93" offset="0"/>
      <stop id="stop28" style="stop-color:#f4c125" offset=".20390"/>
      <stop id="stop30" style="stop-color:#b47527" offset="1"/>
    </radialGradient>
    <radialGradient id="radialGradient44" gradientUnits="userSpaceOnUse" cy="-16737" cx="389.14" gradientTransform="matrix(-.03616 -.63898 .70752 -.032896 11880 -279.71)" r="14.822">
      <stop id="stop46" style="stop-color:#f5dc93" offset="0"/>
      <stop id="stop48" style="stop-color:#f4c125" offset=".20390"/>
      <stop id="stop50" style="stop-color:#b47527" offset="1"/>
    </radialGradient>
    <radialGradient id="radialGradient64" gradientUnits="userSpaceOnUse" cy="-12.65" cx="35.2" gradientTransform="matrix(-.007808 -.63994 .70842 -.00864 31.752 42.812)" r="20.552">
      <stop id="stop66" style="stop-color:#f5dc93" offset="0"/>
      <stop id="stop68" style="stop-color:#f4c125" offset=".20390"/>
      <stop id="stop70" style="stop-color:#b47527" offset="1"/>
    </radialGradient>
    <radialGradient id="radialGradient84" gradientUnits="userSpaceOnUse" cy="-15834" cx="-366.45" gradientTransform="matrix(.036608 -.63898 -.70790 -.032832 -11188 -731.89)" r="14.849">
      <stop id="stop86" style="stop-color:#f5dc93" offset="0"/>
      <stop id="stop88" style="stop-color:#f4c125" offset=".20390"/>
      <stop id="stop90" style="stop-color:#b47527" offset="1"/>
    </radialGradient>
    <radialGradient id="radialGradient110" gradientUnits="userSpaceOnUse" cy="-16213" cx="-92.015" gradientTransform="matrix(.007808 -.63994 -.70842 -.00864 -11477 -178.45)" r="20.552">
      <stop id="stop112" style="stop-color:#f5dc93" offset="0"/>
      <stop id="stop114" style="stop-color:#f4c125" offset=".20390"/>
      <stop id="stop116" style="stop-color:#b47527" offset="1"/>
    </radialGradient>
    <radialGradient id="radialGradient138" gradientUnits="userSpaceOnUse" cy="-16240" cx="-50.807" gradientTransform="matrix(.004992 -.64 -.62726 -.004864 -10172 -94.946)" r="19.463">
      <stop id="stop140" style="stop-color:#f5dc93" offset="0"/>
      <stop id="stop142" style="stop-color:#f4c125" offset=".20390"/>
      <stop id="stop144" style="stop-color:#b47527" offset="1"/>
    </radialGradient>
    <clipPath id="clipPath158">
      <path id="path160" d="m29.684 16.971c0.961-1.899 1.238-3.786 0.832-5.665-0.129-0.554-0.672-1.91-1.633-4.062-0.469-1.023-1.235-2.016-2.301-2.977-0.984-0.855-1.793-1.355-2.434-1.504-0.98-0.703-1.941-1.214-2.878-1.535-0.942-0.3-1.922-0.492-2.946-0.578h-1.281c-0.594-0.488-1.227-0.703-1.887-0.64-0.492 0.023-1.066 0.234-1.726 0.64-1.325-0.062-2.657 0.129-4 0.578-0.942 0.321-1.899 0.832-2.883 1.535-0.637 0.149-1.449 0.649-2.43 1.504-1.066 0.961-1.836 1.954-2.305 2.977-0.96 2.152-1.503 3.508-1.632 4.062-0.403 1.879-0.129 3.766 0.832 5.665 1.09 2.132 2.742 3.679 4.961 4.64 1.515 0.66 2.89 0.949 4.129 0.863 0.832-0.105 1.546-0.222 2.144-0.351 0.981 0.469 2.09 0.703 3.328 0.703 1.153 0 2.11-0.211 2.879-0.641l2.145 0.289c1.238 0.086 2.613-0.203 4.129-0.863 2.218-0.961 3.871-2.508 4.957-4.64z" inkscape:connector-curvature="0"/>
    </clipPath>
    <clipPath id="clipPath166">
      <path id="path168" d="m1.9338-16334h37.501v57.961h-37.501v-57.961z" inkscape:connector-curvature="0"/>
    </clipPath>
    <radialGradient id="radialGradient170" gradientUnits="userSpaceOnUse" cy="-16303" cx="3.8389" r="35.075">
      <stop id="stop172" style="stop-color:#ffffff;stop-opacity:0" offset="0"/>
      <stop id="stop174" style="stop-color:#ffffff" offset="1"/>
    </radialGradient>
    <mask id="mask176">
      <g id="g178">
        <g id="g180" clip-path="url(#clipPath166)">
          <path id="path182" style="fill:url(#radialGradient170)" d="m1.9338-16334h37.501v57.961h-37.501v-57.961z" inkscape:connector-curvature="0"/>
        </g>
      </g>
    </mask>
    <radialGradient id="radialGradient186" gradientUnits="userSpaceOnUse" cy="-16303" cx="3.8389" r="35.075">
      <stop id="stop188" style="stop-color:#f4c125" offset="0"/>
      <stop id="stop190" style="stop-color:#603c10" offset="1"/>
    </radialGradient>
    <radialGradient id="radialGradient204" gradientUnits="userSpaceOnUse" cy="-16232" cx="-72.643" gradientTransform="matrix(.005568 -.64 -.56666 -.004928 -9182.7 -99.791)" r="6.8753">
      <stop id="stop206" style="stop-color:#9fab41" offset="0"/>
      <stop id="stop208" style="stop-color:#796d12" offset="1"/>
    </radialGradient>
    <radialGradient id="radialGradient222" gradientUnits="userSpaceOnUse" cy="-16229" cx="-77.94" gradientTransform="matrix(.00576 -.64 -.56570 -.005056 -9165.5 -104.35)" r="3.6627">
      <stop id="stop224" style="stop-color:#9fab41" offset="0"/>
      <stop id="stop226" style="stop-color:#796d12" offset="1"/>
    </radialGradient>
  </defs>
  <g id="g10" transform="matrix(1.25 0 0 -1.25 0 35.627)">
    <g id="g12">
      <g id="g14">
        <g id="g16">
          <g id="g22">
            <path id="path32" style="fill-rule:evenodd;fill:url(#radialGradient24)" d="m19.156 20.717-5.121-0.321-2.047 0.575-0.191 0.929c0.98 0.617 2.238 0.926 3.777 0.926 0.895 0 1.715-0.148 2.461-0.445 0.684-0.278 1.078-0.559 1.184-0.832 0.109-0.364 0.086-0.641-0.063-0.832z" inkscape:connector-curvature="0"/>
          </g>
        </g>
      </g>
      <g id="g34">
        <g id="g36">
          <g id="g42">
            <path id="path52" style="fill-rule:evenodd;fill:url(#radialGradient44)" d="m30.516 11.306c-0.129-0.554-0.672-1.91-1.633-4.062-0.469-1.066-1.289-2.102-2.461-3.106-1.067-0.894-1.891-1.363-2.465-1.406-0.684-0.066-2.676 0.617-5.984 2.047l-2.434 16.352c0.535 0.64 2.219 1.09 5.059 1.343 1.238 0.086 2.613-0.203 4.129-0.863 2.218-0.961 3.871-2.508 4.957-4.64 0.961-1.899 1.238-3.786 0.832-5.665z" inkscape:connector-curvature="0"/>
          </g>
        </g>
      </g>
      <g id="g54">
        <g id="g56">
          <g id="g62">
            <path id="path72" style="fill-rule:evenodd;fill:url(#radialGradient64)" d="m28.949 10.314c-0.32-1.75-0.898-3.222-1.73-4.414-0.723-1.066-1.621-2.015-2.688-2.847-1.066-0.856-2.152-1.461-3.261-1.825-0.942-0.3-1.922-0.492-2.946-0.578h-1.281l-1.117 20.16 1.629 0.258c1.281 0.149 2.453 0.18 3.523 0.094 1.512-0.106 2.942-0.574 4.285-1.406 1.621-0.985 2.723-2.293 3.297-3.938 0.578-1.64 0.672-3.476 0.289-5.504z" inkscape:connector-curvature="0"/>
          </g>
        </g>
      </g>
      <g id="g74">
        <g id="g76">
          <g id="g82">
            <path id="path92" style="fill-rule:evenodd;fill:url(#radialGradient84)" d="m0.18 11.306c-0.403 1.879-0.129 3.766 0.832 5.665 1.09 2.132 2.742 3.679 4.961 4.64 1.515 0.66 2.89 0.949 4.129 0.863 0.98-0.086 2.003-0.265 3.07-0.543 1.324-0.339 2.082-0.714 2.273-1.121l-2.754-16.031c-3.285-1.43-5.269-2.113-5.949-2.047-0.578 0.039-1.398 0.512-2.465 1.406-1.172 1.004-1.996 2.04-2.465 3.106-0.96 2.152-1.503 3.508-1.632 4.062z" inkscape:connector-curvature="0"/>
          </g>
        </g>
      </g>
      <path id="path94" style="fill-rule:evenodd;fill:#a96f24" d="m0.918 12.717c0.168 1.023 0.371 2.015 0.605 2.972 0.301 1.282 1.102 2.434 2.403 3.457 0.98 0.789 2.058 1.387 3.23 1.793 1.067 0.364 3 0.34 5.793-0.062l1.887-3.586-2.145-12.512-2.015-0.832-1.153 1.184v9.535l-7.488 1.152-0.285-0.801c-0.195-0.636-0.332-1.246-0.418-1.824-0.062-0.66-0.051-1.469 0.031-2.43 0.086-0.855 0.203-1.527 0.352-2.015 0.195-0.598 0.16-0.961-0.094-1.09-0.535 1.152-0.82 1.793-0.863 1.922-0.344 0.808-0.567 1.566-0.672 2.269h0.223c0.3 0 0.5 0.289 0.609 0.868z" inkscape:connector-curvature="0"/>
      <path id="path96" style="fill-rule:evenodd;fill:#a26921" d="m1.363 10.763c-0.082 0.961-0.093 1.77-0.031 2.43 0.086 0.578 0.223 1.188 0.418 1.824l0.285 0.801 7.488-1.152v-9.535l-6.269 6.398-1.602 0.481 0.129-1.504c0.129-1.153 0.34-2.067 0.641-2.75 0.469-1.133 0.797-1.985 0.992-2.563l-0.16-0.031c-0.664 0.684-1.145 1.379-1.442 2.082l-0.191 0.414c0.254 0.129 0.289 0.492 0.094 1.09-0.149 0.488-0.266 1.16-0.352 2.015z" inkscape:connector-curvature="0"/>
      <path id="path98" style="fill-rule:evenodd;fill:#905d1c" d="m1.781 10.506-0.129 1.504 1.602-0.481 7.422-7.582c-2.09-0.875-3.403-1.281-3.934-1.215-0.363 0.02-0.875 0.254-1.539 0.703-0.703 0.493-1.351 1.067-1.949 1.727l0.16 0.031c-0.195 0.578-0.523 1.43-0.992 2.563-0.301 0.683-0.512 1.597-0.641 2.75z" inkscape:connector-curvature="0"/>
      <g id="g100">
        <g id="g102">
          <g id="g108">
            <path id="path118" style="fill-rule:evenodd;fill:url(#radialGradient110)" d="m1.75 10.314c-0.387 2.028-0.289 3.864 0.285 5.504 0.578 1.645 1.676 2.957 3.297 3.938 1.344 0.832 2.773 1.3 4.289 1.406 1.707 0.129 3.422 0.012 5.152-0.352l-1.121-20.16c-1.324-0.105-2.73 0.086-4.222 0.578-1.11 0.364-2.2 0.969-3.266 1.825-1.066 0.832-1.961 1.781-2.687 2.847-0.813 1.192-1.387 2.664-1.727 4.414z" inkscape:connector-curvature="0"/>
          </g>
        </g>
      </g>
      <path id="path120" style="fill-rule:evenodd;fill:#a96f24" d="m14.676 20.81h0.097l-0.703-12.863-5.699 3.68c-0.082-1.684-0.094-2.848-0.031-3.489 0.043-0.511 0.183-1.312 0.418-2.398 0.234-1.023 0.351-1.644 0.351-1.855 0.02-0.407-0.203-0.739-0.671-0.993-0.536-0.32-1.184-0.351-1.954-0.097-1.023 0.789-1.824 1.558-2.398 2.304 0.852-0.32 1.566-0.375 2.144-0.16 0.532 0.192 0.875 0.586 1.024 1.184-0.043 0.492-0.066 1.055-0.066 1.695-0.043 1.281 0.214 3.117 0.769 5.504 0.574 2.434 1.836 4.395 3.777 5.891 0.981 0.746 1.961 1.277 2.942 1.597z" inkscape:connector-curvature="0"/>
      <path id="path122" style="fill-rule:evenodd;fill:#a26921" d="m14.07 7.947-0.129-1.887-4.738 2.942-0.351-0.606 0.16-1.281c0.148-0.98 0.363-1.762 0.64-2.336 0.618-1.258 0.93-2.121 0.93-2.594 0-0.211-0.152-0.402-0.449-0.574-0.383-0.172-0.863-0.203-1.442-0.098-0.746 0.321-1.48 0.75-2.207 1.282 0.77-0.254 1.418-0.223 1.954 0.097 0.468 0.254 0.691 0.586 0.671 0.993 0 0.211-0.117 0.832-0.351 1.855-0.235 1.086-0.375 1.887-0.418 2.398-0.063 0.641-0.051 1.805 0.031 3.489l5.699-3.68z" inkscape:connector-curvature="0"/>
      <path id="path124" style="fill-rule:evenodd;fill:#905d1c" d="m8.852 8.396 0.351 0.606 4.738-2.942-0.191-3.906c-0.301 0.109-0.609 0.184-0.93 0.227l-0.382 0.031 0.222-0.258c0.067-0.234-0.086-0.512-0.449-0.832-0.297-0.277-0.84-0.414-1.629-0.414l-1.891 0.605c0.579-0.105 1.059-0.074 1.442 0.098 0.297 0.172 0.449 0.363 0.449 0.574 0 0.469-0.309 1.336-0.93 2.594-0.277 0.574-0.492 1.356-0.64 2.336l-0.16 1.281z" inkscape:connector-curvature="0"/>
      <path id="path126" style="fill-rule:evenodd;fill:#6e4613" d="m12.211 1.322c0.363 0.32 0.516 0.598 0.449 0.832l-0.222 0.258 0.382-0.031c0.321-0.043 0.629-0.118 0.93-0.227l-0.098-1.504c-0.894-0.062-1.918 0.024-3.07 0.258 0.789 0 1.332 0.137 1.629 0.414z" inkscape:connector-curvature="0"/>
      <g id="g128">
        <g id="g130">
          <g id="g136">
            <path id="path146" style="fill-rule:evenodd;fill:url(#radialGradient138)" d="m15.156 20.939c1.727-0.023 3.168-0.586 4.321-1.695 1.046-1.023 1.675-2.328 1.886-3.906 0.172-1.387-0.008-3.434-0.543-6.145-0.492-2.515-1-4.285-1.535-5.308-0.597-1.196-1.164-2.094-1.695-2.692-0.77-0.851-1.582-1.246-2.434-1.183-0.851 0.066-1.738 0.511-2.656 1.343-0.789 0.707-1.516 1.602-2.176 2.692-0.746 1.234-1.312 2.527-1.695 3.871-0.363 1.301-0.524 2.527-0.481 3.68 0.086 1.597 0.5 3.125 1.25 4.574 0.555 1.109 1.184 1.996 1.887 2.656 0.512 0.492 1.184 0.961 2.016 1.41 0.851 0.469 1.472 0.703 1.855 0.703z" inkscape:connector-curvature="0"/>
          </g>
        </g>
      </g>
      <path id="path148" style="fill-rule:evenodd;fill:#a96f24" d="m10.324 4.045c-0.148 0.254-0.426 0.777-0.832 1.566 0.703-0.875 1.93-1.484 3.68-1.824 1.516-0.277 2.73-0.301 3.648-0.063 1.41 0.403 2.657 1.832 3.746 4.286l-0.48-1.95c-0.664-1.324-1.016-2.027-1.059-2.113-0.617-1.066-1.203-1.738-1.757-2.016-1.688-0.855-3.372-0.781-5.059 0.223l-0.992 0.609-0.895 1.282z" inkscape:connector-curvature="0"/>
      <path id="path150" style="fill-rule:evenodd;fill:#a26921" d="m14.293 0.748c-0.66 0.086-1.332 0.363-2.016 0.832-0.32 0.297-0.672 0.691-1.058 1.183l0.992-0.609c1.687-1.004 3.371-1.078 5.059-0.223 0.554 0.278 1.14 0.95 1.757 2.016 0.043 0.086 0.395 0.789 1.059 2.113-0.344-1.089-0.609-1.816-0.801-2.175l-0.609-1.153c-0.703-0.984-1.473-1.601-2.305-1.855-0.512-0.172-1.203-0.215-2.078-0.129z" inkscape:connector-curvature="0"/>
      <path id="path152" style="fill-rule:evenodd;fill:#6e4613" d="m12.277 1.58c0.684-0.469 1.356-0.746 2.016-0.832 0.875-0.086 1.566-0.043 2.078 0.129 0.832 0.254 1.602 0.871 2.305 1.855-1.129-1.922-2.305-2.828-3.52-2.722-0.937 0.086-1.898 0.609-2.879 1.57z" inkscape:connector-curvature="0"/>
      <g id="g154">
        <g id="g156" clip-path="url(#clipPath158)">
          <g id="g162" transform="matrix(.0000091232 -.64 -.53485 .0000091232 -8705.3 24.888)">
            <g id="g184" mask="url(#mask176)">
              <path id="path192" style="fill-rule:evenodd;fill:url(#radialGradient186)" d="m29.684 16.971c0.961-1.899 1.238-3.786 0.832-5.665-0.129-0.554-0.672-1.91-1.633-4.062-0.469-1.023-1.235-2.016-2.301-2.977-0.984-0.855-1.793-1.355-2.434-1.504-0.98-0.703-1.941-1.214-2.878-1.535-0.942-0.3-1.922-0.492-2.946-0.578h-1.281c-0.594-0.488-1.227-0.703-1.887-0.64-0.492 0.023-1.066 0.234-1.726 0.64-1.325-0.062-2.657 0.129-4 0.578-0.942 0.321-1.899 0.832-2.883 1.535-0.637 0.149-1.449 0.649-2.43 1.504-1.066 0.961-1.836 1.954-2.305 2.977-0.96 2.152-1.503 3.508-1.632 4.062-0.403 1.879-0.129 3.766 0.832 5.665 1.09 2.132 2.742 3.679 4.961 4.64 1.515 0.66 2.89 0.949 4.129 0.863 0.832-0.105 1.546-0.222 2.144-0.351 0.981 0.469 2.09 0.703 3.328 0.703 1.153 0 2.11-0.211 2.879-0.641l2.145 0.289c1.238 0.086 2.613-0.203 4.129-0.863 2.218-0.961 3.871-2.508 4.957-4.64z" inkscape:connector-curvature="0"/>
            </g>
          </g>
        </g>
      </g>
      <g id="g194">
        <g id="g196">
          <g id="g202">
            <path id="path210" style="fill-rule:evenodd;fill:url(#radialGradient204)" d="m17.398 26.763c-0.171-0.578-0.32-0.972-0.449-1.183-0.172-0.32-0.332-0.789-0.48-1.41-0.149-0.617-0.223-1.117-0.223-1.504 0-0.512 0.082-1.117 0.254-1.824-0.129 0.129-0.363 0.171-0.703 0.129h-0.063c-0.664 0.062-1.269-0.063-1.824-0.383l-0.129 0.062c-0.597 1.559-0.941 2.871-1.023 3.938-0.043 0.683-0.067 1.406-0.067 2.175v0.926l0.418-0.285 0.129-0.16c0.36-0.363 0.821-0.598 1.375-0.703 0.575-0.258 1.121-0.301 1.633-0.129 0.383 0.019 0.754 0.137 1.117 0.351h0.035z" inkscape:connector-curvature="0"/>
          </g>
        </g>
      </g>
      <g id="g212">
        <g id="g214">
          <g id="g220">
            <path id="path228" style="fill-rule:evenodd;fill:url(#radialGradient222)" d="m15.988 26.025c-0.32 0.024-0.726-0.019-1.215-0.125-0.343-0.066-0.781 0-1.312 0.192-0.106 0.043-0.266 0.32-0.481 0.832l-0.289 0.765 0.641 0.547c0.578 0.32 1.227 0.352 1.953 0.094 0.723-0.234 1.289-0.563 1.695-0.992 0.215-0.211 0.352-0.403 0.418-0.575-0.023-0.148-0.097-0.289-0.226-0.417-0.254-0.278-0.649-0.383-1.184-0.321z" inkscape:connector-curvature="0"/>
          </g>
        </g>
      </g>
      <path id="path230" style="fill-rule:evenodd;fill:#4e4906" d="m14.805 27.017c-0.215-0.254-0.364-0.488-0.45-0.703-0.296-0.406-0.445-0.789-0.445-1.152 0-0.277 0.02-0.691 0.063-1.246 0-0.535-0.024-0.949-0.063-1.25-0.043 0.301-0.078 0.512-0.098 0.64l-0.289 1.985c-0.019 0.215-0.031 0.375-0.031 0.48-0.019 0.172 0 0.309 0.063 0.414l0.16 0.227 0.992 0.605h0.098z" inkscape:connector-curvature="0"/>
      <path id="path232" style="fill-rule:evenodd;fill:#4e4906" d="m15.348 26.025c-0.086-0.043-0.149-0.137-0.192-0.285-0.043-0.086-0.086-0.203-0.129-0.352l-0.285-0.738c-0.109 0.11-0.117 0.438-0.035 0.992 0 0.258 0.066 0.45 0.195 0.579l0.446-0.196z" inkscape:connector-curvature="0"/>
      <path id="path234" style="fill-rule:evenodd;fill:#5c5708" d="m16.117 26.025 1.153 0.481-0.29-1.438-0.222-0.48c-0.149-0.387-0.246-0.789-0.289-1.219-0.063-0.488-0.098-0.969-0.098-1.438 0-0.109 0.012-0.308 0.035-0.609 0-0.254-0.023-0.445-0.066-0.574-0.043 0-0.246 0.062-0.606 0.191-0.281-0.023-0.449-0.011-0.515 0.032-0.106 0.042-0.157 0.191-0.157 0.449 0.02 0.277 0.032 0.457 0.032 0.543-0.024 0.363-0.043 0.652-0.067 0.863-0.019 0.406 0.012 0.695 0.098 0.863 0.043-0.191 0.074-0.457 0.094-0.797 0.043-0.32 0.109-0.589 0.195-0.8v2.031c0.012-0.68 0.106-1.227 0.285-1.649 0.067 0.215 0.086 0.536 0.067 0.961-0.024 0.426-0.012 0.746 0.031 0.961 0.086 0.746 0.191 1.289 0.32 1.629z" inkscape:connector-curvature="0"/>
    </g>
  </g>
<metadata><rdf:RDF><cc:Work><dc:format>image/svg+xml</dc:format><dc:type rdf:resource="http://purl.org/dc/dcmitype/StillImage"/><cc:license rdf:resource="http://creativecommons.org/licenses/publicdomain/"/><dc:publisher><cc:Agent rdf:about="http://openclipart.org/"><dc:title>Openclipart</dc:title></cc:Agent></dc:publisher></cc:Work><cc:License rdf:about="http://creativecommons.org/licenses/publicdomain/"><cc:permits rdf:resource="http://creativecommons.org/ns#Reproduction"/><cc:permits rdf:resource="http://creativecommons.org/ns#Distribution"/><cc:permits rdf:resource="http://creativecommons.org/ns#DerivativeWorks"/></cc:License></rdf:RDF></metadata></svg>
