<?xml version="1.0" encoding="UTF-8" standalone="no"?>
<!-- Created with Inkscape (http://www.inkscape.org/) -->
<svg xmlns:inkscape="http://www.inkscape.org/namespaces/inkscape" xmlns:rdf="http://www.w3.org/1999/02/22-rdf-syntax-ns#" xmlns="http://www.w3.org/2000/svg" xmlns:xlink="http://www.w3.org/1999/xlink" xmlns:ns1="http://sozi.baierouge.fr" xmlns:cc="http://creativecommons.org/ns#" xmlns:sodipodi="http://sodipodi.sourceforge.net/DTD/sodipodi-0.dtd" xmlns:dc="http://purl.org/dc/elements/1.1/" id="svg2" xml:space="preserve" viewBox="0 0 44.149 42.107" version="1.1" inkscape:version="0.91 r13725">
  <defs id="defs6">
    <linearGradient id="linearGradient24" y2="-24.59" gradientUnits="userSpaceOnUse" x2="7.2484" gradientTransform="matrix(-.31648 -.73472 -.73472 .31648 .016178 33.671)" y1="-24.59" x1="-13.984">
      <stop id="stop26" style="stop-color:#779e39" offset="0"/>
      <stop id="stop28" style="stop-color:#608a25" offset=".8039"/>
      <stop id="stop30" style="stop-color:#59851f" offset="1"/>
    </linearGradient>
    <linearGradient id="linearGradient46" y2="-26.559" gradientUnits="userSpaceOnUse" x2="-9.929" gradientTransform="matrix(-.69408 -.39784 -.39784 .69408 .015828 33.671)" y1="-26.559" x1="-37.679">
      <stop id="stop48" style="stop-color:#779e39" offset="0"/>
      <stop id="stop50" style="stop-color:#608a25" offset=".8039"/>
      <stop id="stop52" style="stop-color:#59851f" offset="1"/>
    </linearGradient>
    <radialGradient id="radialGradient72" gradientUnits="userSpaceOnUse" cy="10.765" cx="17.37" gradientTransform="matrix(.60112 -.52784 .52784 .60112 -11.347 20.729)" r="27.281">
      <stop id="stop74" style="stop-color:#f07dc2" offset="0"/>
      <stop id="stop76" style="stop-color:#662b3d" offset="1"/>
    </radialGradient>
    <clipPath id="clipPath84">
      <path id="path86" d="m19 5.6855h4v4h-4v-4z" inkscape:connector-curvature="0"/>
    </clipPath>
    <mask id="mask88">
      <g id="g90">
        <g id="g92" clip-path="url(#clipPath84)">
          <path id="path94" style="fill:#000000;fill-opacity:.12890" d="m19 5.6855h4v4h-4v-4z" inkscape:connector-curvature="0"/>
        </g>
      </g>
    </mask>
    <clipPath id="clipPath100">
      <path id="path102" d="m19 5.6855h4v4h-4v-4z" inkscape:connector-curvature="0"/>
    </clipPath>
    <clipPath id="clipPath104">
      <path id="path106" d="m19 6h4v4h-4v-4z" inkscape:connector-curvature="0"/>
    </clipPath>
    <radialGradient id="radialGradient112" gradientUnits="userSpaceOnUse" cy="-6651.7" cx="-3311.2" gradientTransform="matrix(.6344 -.48736 -.48736 -.6344 -1134.9 -5814.5)" r="24.479">
      <stop id="stop114" style="stop-color:#e0c884" offset="0"/>
      <stop id="stop116" style="stop-color:#a89958" offset="1"/>
    </radialGradient>
    <clipPath id="clipPath144">
      <path id="path146" d="m18 8.6855h2v3h-2v-3z" inkscape:connector-curvature="0"/>
    </clipPath>
    <mask id="mask148">
      <g id="g150">
        <g id="g152" clip-path="url(#clipPath144)">
          <path id="path154" style="fill:#000000;fill-opacity:.33980" d="m18 8.6855h2v3h-2v-3z" inkscape:connector-curvature="0"/>
        </g>
      </g>
    </mask>
    <clipPath id="clipPath160">
      <path id="path162" d="m18 8.6855h2v3h-2v-3z" inkscape:connector-curvature="0"/>
    </clipPath>
    <clipPath id="clipPath164">
      <path id="path166" d="m18 9h2v3h-2v-3z" inkscape:connector-curvature="0"/>
    </clipPath>
    <radialGradient id="radialGradient172" gradientUnits="userSpaceOnUse" cy="-6653.2" cx="-3308.7" gradientTransform="matrix(.6344 -.48744 -.48744 -.6344 -1137.8 -5814.2)" r="24.497">
      <stop id="stop174" style="stop-color:#e0c884" offset="0"/>
      <stop id="stop176" style="stop-color:#a89958" offset="1"/>
    </radialGradient>
    <clipPath id="clipPath204">
      <path id="path206" d="m16 14.685h5v4h-5v-4z" inkscape:connector-curvature="0"/>
    </clipPath>
    <mask id="mask208">
      <g id="g210">
        <g id="g212" clip-path="url(#clipPath204)">
          <path id="path214" style="fill:#000000;fill-opacity:.28130" d="m16 14.685h5v4h-5v-4z" inkscape:connector-curvature="0"/>
        </g>
      </g>
    </mask>
    <clipPath id="clipPath220">
      <path id="path222" d="m16 14.685h5v4h-5v-4z" inkscape:connector-curvature="0"/>
    </clipPath>
    <clipPath id="clipPath224">
      <path id="path226" d="m16 15h5v4h-5v-4z" inkscape:connector-curvature="0"/>
    </clipPath>
    <radialGradient id="radialGradient232" gradientUnits="userSpaceOnUse" cy="-6658" cx="-3301.8" gradientTransform="matrix(.6344 -.48736 -.48736 -.6344 -1143.9 -5814)" r="24.479">
      <stop id="stop234" style="stop-color:#e0c884" offset="0"/>
      <stop id="stop236" style="stop-color:#a89958" offset="1"/>
    </radialGradient>
    <clipPath id="clipPath264">
      <path id="path266" d="m21 12.685h3v4h-3v-4z" inkscape:connector-curvature="0"/>
    </clipPath>
    <mask id="mask268">
      <g id="g270">
        <g id="g272" clip-path="url(#clipPath264)">
          <path id="path274" style="fill:#000000;fill-opacity:.26950" d="m21 12.685h3v4h-3v-4z" inkscape:connector-curvature="0"/>
        </g>
      </g>
    </mask>
    <clipPath id="clipPath280">
      <path id="path282" d="m21 12.685h3v4h-3v-4z" inkscape:connector-curvature="0"/>
    </clipPath>
    <clipPath id="clipPath284">
      <path id="path286" d="m21 13h3v4h-3v-4z" inkscape:connector-curvature="0"/>
    </clipPath>
    <radialGradient id="radialGradient292" gradientUnits="userSpaceOnUse" cy="-6659.4" cx="-3308" gradientTransform="matrix(.6344 -.48736 -.48736 -.6344 -1140.7 -5817.9)" r="24.479">
      <stop id="stop294" style="stop-color:#e0c884" offset="0"/>
      <stop id="stop296" style="stop-color:#a89958" offset="1"/>
    </radialGradient>
    <clipPath id="clipPath324">
      <path id="path326" d="m10 14.685h3v3h-3v-3z" inkscape:connector-curvature="0"/>
    </clipPath>
    <mask id="mask328">
      <g id="g330">
        <g id="g332" clip-path="url(#clipPath324)">
          <path id="path334" style="fill:#000000;fill-opacity:.55860" d="m10 14.685h3v3h-3v-3z" inkscape:connector-curvature="0"/>
        </g>
      </g>
    </mask>
    <clipPath id="clipPath340">
      <path id="path342" d="m10 14.685h3v3h-3v-3z" inkscape:connector-curvature="0"/>
    </clipPath>
    <clipPath id="clipPath344">
      <path id="path346" d="m10 15h3v3h-3v-3z" inkscape:connector-curvature="0"/>
    </clipPath>
    <radialGradient id="radialGradient352" gradientUnits="userSpaceOnUse" cy="-6652" cx="-3296.8" gradientTransform="matrix(.6344 -.48736 -.48736 -.6344 -1144.2 -5807.7)" r="24.479">
      <stop id="stop354" style="stop-color:#e0c884" offset="0"/>
      <stop id="stop356" style="stop-color:#a89958" offset="1"/>
    </radialGradient>
    <clipPath id="clipPath384">
      <path id="path386" d="m12 9.6855h3v3h-3v-3z" inkscape:connector-curvature="0"/>
    </clipPath>
    <mask id="mask388">
      <g id="g390">
        <g id="g392" clip-path="url(#clipPath384)">
          <path id="path394" style="fill:#000000;fill-opacity:.55860" d="m12 9.6855h3v3h-3v-3z" inkscape:connector-curvature="0"/>
        </g>
      </g>
    </mask>
    <clipPath id="clipPath400">
      <path id="path402" d="m12 9.6855h3v3h-3v-3z" inkscape:connector-curvature="0"/>
    </clipPath>
    <clipPath id="clipPath404">
      <path id="path406" d="m12 10h3v3h-3v-3z" inkscape:connector-curvature="0"/>
    </clipPath>
    <radialGradient id="radialGradient412" gradientUnits="userSpaceOnUse" cy="-6649" cx="-3301.5" gradientTransform="matrix(.6344 -.48736 -.48736 -.6344 -1139.7 -5808.1)" r="24.479">
      <stop id="stop414" style="stop-color:#e0c884" offset="0"/>
      <stop id="stop416" style="stop-color:#a89958" offset="1"/>
    </radialGradient>
    <radialGradient id="radialGradient450" gradientUnits="userSpaceOnUse" cy="-1.5933" cx="20.474" gradientTransform="matrix(.32208 -.73232 .73232 .32208 2.35 34.697)" r="24.593">
      <stop id="stop452" style="stop-color:#f0da9e" offset="0"/>
      <stop id="stop454" style="stop-color:#9c8e51" offset="1"/>
    </radialGradient>
    <clipPath id="clipPath462">
      <path id="path464" d="m10-0.31452h8v10h-8v-10z" inkscape:connector-curvature="0"/>
    </clipPath>
    <mask id="mask466">
      <g id="g468">
        <g id="g470" clip-path="url(#clipPath462)">
          <path id="path472" style="fill:#000000;fill-opacity:.58980" d="m10-0.31452h8v10h-8v-10z" inkscape:connector-curvature="0"/>
        </g>
      </g>
    </mask>
    <clipPath id="clipPath478">
      <path id="path480" d="m10-0.31452h8v10h-8v-10z" inkscape:connector-curvature="0"/>
    </clipPath>
    <clipPath id="clipPath482">
      <path id="path484" d="m10 0h8v10h-8v-10z" inkscape:connector-curvature="0"/>
    </clipPath>
    <radialGradient id="radialGradient490" gradientUnits="userSpaceOnUse" cy="-11477" cx="-2920.2" gradientTransform="matrix(.37848 -.7048 -.7048 -.37848 -6977.9 -6381.7)" r="26.475">
      <stop id="stop492" style="stop-color:#d6c28a" offset="0"/>
      <stop id="stop494" style="stop-color:#8a7c41" offset="1"/>
    </radialGradient>
    <clipPath id="clipPath522">
      <path id="path524" d="m0 7.6855h4v3h-4v-3z" inkscape:connector-curvature="0"/>
    </clipPath>
    <mask id="mask526">
      <g id="g528">
        <g id="g530" clip-path="url(#clipPath522)">
          <path id="path532" style="fill:#000000;fill-opacity:.53130" d="m0 7.6855h4v3h-4v-3z" inkscape:connector-curvature="0"/>
        </g>
      </g>
    </mask>
    <clipPath id="clipPath538">
      <path id="path540" d="m0 7.6855h4v3h-4v-3z" inkscape:connector-curvature="0"/>
    </clipPath>
    <clipPath id="clipPath542">
      <path id="path544" d="m0 8h4v3h-4v-3z" inkscape:connector-curvature="0"/>
    </clipPath>
    <radialGradient id="radialGradient550" gradientUnits="userSpaceOnUse" cy="-11466" cx="-2912.9" gradientTransform="matrix(.37848 -.7048 -.7048 -.37848 -6973.1 -6372.6)" r="26.475">
      <stop id="stop552" style="stop-color:#d6c28a" offset="0"/>
      <stop id="stop554" style="stop-color:#8a7c41" offset="1"/>
    </radialGradient>
    <clipPath id="clipPath582">
      <path id="path584" d="m9-0.31452h7v9h-7v-9z" inkscape:connector-curvature="0"/>
    </clipPath>
    <mask id="mask586">
      <g id="g588">
        <g id="g590" clip-path="url(#clipPath582)">
          <path id="path592" style="fill:#000000;fill-opacity:.71090" d="m9-0.31452h7v9h-7v-9z" inkscape:connector-curvature="0"/>
        </g>
      </g>
    </mask>
    <clipPath id="clipPath598">
      <path id="path600" d="m9-0.31452h7v9h-7v-9z" inkscape:connector-curvature="0"/>
    </clipPath>
    <clipPath id="clipPath602">
      <path id="path604" d="m9 0h7v9h-7v-9z" inkscape:connector-curvature="0"/>
    </clipPath>
    <radialGradient id="radialGradient610" gradientUnits="userSpaceOnUse" cy="-11474" cx="-2920.7" gradientTransform="matrix(.37848 -.7048 -.7048 -.37848 -6975.8 -6381.1)" r="26.475">
      <stop id="stop612" style="stop-color:#d6c28a" offset="0"/>
      <stop id="stop614" style="stop-color:#8a7c41" offset="1"/>
    </radialGradient>
    <clipPath id="clipPath642">
      <path id="path644" d="m1 4.6855h7v5h-7v-5z" inkscape:connector-curvature="0"/>
    </clipPath>
    <mask id="mask646">
      <g id="g648">
        <g id="g650" clip-path="url(#clipPath642)">
          <path id="path652" style="fill:#000000;fill-opacity:.48830" d="m1 4.6855h7v5h-7v-5z" inkscape:connector-curvature="0"/>
        </g>
      </g>
    </mask>
    <clipPath id="clipPath658">
      <path id="path660" d="m1 4.6855h7v5h-7v-5z" inkscape:connector-curvature="0"/>
    </clipPath>
    <clipPath id="clipPath662">
      <path id="path664" d="m1 5h7v5h-7v-5z" inkscape:connector-curvature="0"/>
    </clipPath>
    <radialGradient id="radialGradient670" gradientUnits="userSpaceOnUse" cy="-11464" cx="-2915.5" gradientTransform="matrix(.37864 -.70472 -.70472 -.37864 -6969.7 -6375.1)" r="26.492">
      <stop id="stop672" style="stop-color:#d6c28a" offset="0"/>
      <stop id="stop674" style="stop-color:#8a7c41" offset="1"/>
    </radialGradient>
    <clipPath id="clipPath702">
      <path id="path704" d="m1 10.685h10v12h-10v-12z" inkscape:connector-curvature="0"/>
    </clipPath>
    <mask id="mask706">
      <g id="g708">
        <g id="g710" clip-path="url(#clipPath702)">
          <path id="path712" style="fill:#000000;fill-opacity:.14840" d="m1 10.685h10v12h-10v-12z" inkscape:connector-curvature="0"/>
        </g>
      </g>
    </mask>
    <clipPath id="clipPath718">
      <path id="path720" d="m1 10.685h10v12h-10v-12z" inkscape:connector-curvature="0"/>
    </clipPath>
    <clipPath id="clipPath722">
      <path id="path724" d="m1 11h10v12h-10v-12z" inkscape:connector-curvature="0"/>
    </clipPath>
    <clipPath id="clipPath754">
      <path id="path756" d="m2 14.685h5v6h-5v-6z" inkscape:connector-curvature="0"/>
    </clipPath>
    <mask id="mask758">
      <g id="g760">
        <g id="g762" clip-path="url(#clipPath754)">
          <path id="path764" style="fill:#000000;fill-opacity:.25" d="m2 14.685h5v6h-5v-6z" inkscape:connector-curvature="0"/>
        </g>
      </g>
    </mask>
    <clipPath id="clipPath770">
      <path id="path772" d="m2 14.685h5v6h-5v-6z" inkscape:connector-curvature="0"/>
    </clipPath>
    <clipPath id="clipPath774">
      <path id="path776" d="m2 15h5v6h-5v-6z" inkscape:connector-curvature="0"/>
    </clipPath>
  </defs>
  <g id="g10" transform="matrix(1.25 0 0 -1.25 0 42.107)">
    <g id="g12">
      <g id="g14">
        <g id="g16">
          <g id="g22">
            <path id="path32" style="fill-rule:evenodd;fill:url(#linearGradient24)" d="m21.098 28.912-0.2-0.441 0.52 0.519c0.344 0.266 0.574 0.16 0.68-0.32 0.105-0.453-0.16-0.879-0.801-1.277-0.719-0.458-1.106-0.762-1.16-0.922-0.16-0.453-0.321-0.813-0.481-1.078l0.321 0.437c0.265 0.293 0.48 0.375 0.64 0.242 0.188-0.109 0.188-0.293 0-0.562-0.32-0.371-0.574-0.68-0.762-0.918-1.039-1.199-1.636-1.961-1.796-2.282l-0.161-0.48 0.438 0.281c0.293 0.133 0.441 0.055 0.441-0.242 0-0.211-0.402-0.586-1.199-1.117-0.906-0.586-1.453-1.121-1.64-1.602-0.243-0.558-0.508-0.824-0.801-0.8l-0.36 0.203c0.504 0.425 1 1.093 1.481 2 0.48 0.933 0.625 1.531 0.437 1.797-0.16 0.296-0.16 0.601 0 0.921 0.188 0.321 0.43 0.465 0.723 0.442l0.559-0.082c-0.215 1.039-0.536 1.707-0.961 2-0.293 0.187-0.321 0.492-0.078 0.922 0.238 0.398 0.464 0.543 0.679 0.437l0.399-0.16c0 0.293-0.039 0.574-0.118 0.84-0.187 0.586-0.523 0.883-1 0.883-0.535-0.028-0.656 0.183-0.363 0.636 0.297 0.457 0.629 0.602 1 0.442l0.684-0.399c-0.188 0.481-0.336 0.957-0.442 1.438-0.187 0.933-0.027 1.414 0.481 1.441 0.801 0 1.226-0.172 1.277-0.519l0.602 1.359c0.453 0.801 0.894 0.945 1.32 0.442 0.426-0.508 0.629-0.95 0.602-1.321 0-0.16-0.055-0.281-0.161-0.359 1.172 0.426 1.637 0.293 1.399-0.403-0.133-0.375-0.52-0.839-1.16-1.398-0.641-0.562-0.985-0.894-1.039-1z" inkscape:connector-curvature="0"/>
          </g>
        </g>
      </g>
      <path id="path34" style="fill-rule:evenodd;fill:#547a20" d="m22.297 31.029c-1.227-0.824-2-1.453-2.32-1.879-0.481-0.64-0.586-1.215-0.321-1.718 0.106-0.161 0.215-0.215 0.321-0.161 0.105 0.028 0.293 0.172 0.558 0.442 0.32 0.344 0.629 0.597 0.922 0.758-0.187-0.188-0.398-0.387-0.641-0.602-0.453-0.453-0.746-0.797-0.878-1.039-0.508-0.852-0.774-1.437-0.801-1.758 0-0.187 0.039-0.269 0.121-0.242 0.051 0.027 0.172 0.148 0.359 0.359 0.16 0.188 0.321 0.321 0.481 0.403-0.508-0.535-0.868-0.973-1.082-1.321l-0.52-1.32c-0.16-0.238-0.332-0.519-0.519-0.84-0.348-0.613-0.536-1.082-0.559-1.398-0.027-0.348-0.137-0.469-0.32-0.363-0.188 0.082-0.293 0.214-0.321 0.402l-0.402 1.039c0.16 0.133 0.254 0.332 0.281 0.602v0.519l0.16 0.199 0.122-0.199c0.105-0.109 0.238-0.121 0.398-0.043 0.348 0.188 0.547 0.297 0.602 0.32 0.238 0.188 0.347 0.442 0.32 0.762-0.055 0.801-0.281 1.481-0.68 2.039l-0.281 0.32 0.238-0.16c0.215-0.132 0.375-0.293 0.481-0.48l0.519-0.801c0.188 0.695 0.309 1.242 0.363 1.641 0.079 0.535-0.148 1.093-0.679 1.679l-0.524 0.524 0.84-0.524c0.242-0.183 0.43-0.437 0.563-0.757l0.277 1.238c-0.105 0.64-0.25 1.148-0.437 1.519l-0.52 0.961 0.52-0.64 0.597-1.16 0.442 1.601c0.187 0.695 0.507 1.293 0.961 1.801-0.481-0.828-0.735-1.442-0.762-1.84l-0.36-1.519 0.559 0.519c0.453 0.371 0.844 0.625 1.16 0.758l0.762 0.359z" inkscape:connector-curvature="0"/>
      <g id="g36">
        <g id="g38">
          <g id="g44">
            <path id="path54" style="fill-rule:evenodd;fill:url(#linearGradient46)" d="m32.578 30.51c1.067 0.64 1.84 0.722 2.32 0.242 0.344-0.348 0.477-0.84 0.399-1.481-0.055-0.64-1.293-1.281-3.719-1.921l0.918-0.278c0.453-0.16 0.613-0.508 0.481-1.043-0.161-0.531-0.454-0.773-0.879-0.719-0.348 0.028-0.762-0.027-1.243-0.16l-0.597-0.199 0.398-0.68c0.188-0.32 0.028-0.546-0.48-0.679-0.504-0.133-0.828-0.055-0.957 0.238-0.137 0.215-0.496 0.375-1.082 0.48l-0.879 0.122c0.265-0.243 0.105-0.52-0.481-0.84-0.375-0.188-0.922-0.336-1.64-0.442l-0.918-0.121c-0.11-0.265-0.297-0.57-0.563-0.918-0.187-0.215-0.547-0.242-1.078-0.082l-0.762 0.321-0.757-0.719c-0.215-0.215-0.524-0.254-0.922-0.121-0.481 0.16-1.039 0.015-1.68-0.438-0.828-0.586-1.602-1.441-2.32-2.562-0.668-1.039-1.16-2.094-1.481-3.16 0.055-3.145-0.027-3.426-0.238-0.84-0.137 1.707 0.719 3.816 2.559 6.32 1.574 2.188 2.652 3.336 3.242 3.441 0.476 0.079 0.719 0.028 0.719-0.16 0.132 0.375 0.281 0.758 0.437 1.16 0.375 0.825 0.707 1.332 1 1.52 0.48 0.266 0.816-0.238 1-1.52l0.48 1.039c0.43 0.774 0.934 1.403 1.52 1.879 0.59 0.457 1.027 0.524 1.32 0.204 0.137-0.188 0.215-0.403 0.243-0.641l1.121 1.16c0.851 0.773 1.503 1.172 1.957 1.199 0.746 0.028 0.668-0.558-0.239-1.761l0.52 0.562c0.535 0.504 1.293 1.039 2.281 1.598z" inkscape:connector-curvature="0"/>
          </g>
        </g>
      </g>
      <path id="path56" style="fill-rule:evenodd;fill:#547a20" d="m27.977 26.912c-0.055-0.16-0.079-0.309-0.079-0.441l0.637 0.242c0.16 0.051 0.934 0.547 2.32 1.476 0.454 0.321 1.364 0.762 2.723 1.321l-1.723-0.84c-0.691-0.344-1.293-0.746-1.796-1.199l-0.563-0.559 1.641-0.242c0.398-0.051 0.695-0.184 0.879-0.399-0.692 0.215-1.454 0.348-2.278 0.399-0.508 0.055-1.082-0.094-1.722-0.438l-0.797-0.519 1.398-0.524c0.293-0.16 0.625-0.476 1-0.957-0.855 0.719-1.586 1.133-2.199 1.239-0.375 0.054-1.043-0.121-2-0.52l-1.32-0.641 1.64-0.078 1.039-0.242-1.8 0.121c-0.536 0.028-1.122-0.082-1.758-0.32l-0.801-0.398 0.277-0.204 0.602-0.636c-0.293 0.183-0.668 0.371-1.121 0.558-0.293 0.106-0.664 0.067-1.117-0.121l-0.602-0.359 0.238-0.281c0.082-0.079 0.137-0.227 0.16-0.438l-0.32 0.32c-0.316 0.239-0.758 0.172-1.316-0.203-0.27-0.211-0.375-0.371-0.321-0.476 0.024-0.055 0.079-0.082 0.161-0.082l-0.684-0.442-0.477-0.597-0.523 0.597c0.187 0.055 0.59 0.481 1.203 1.281 0.586 0.801 1.199 1.282 1.84 1.442l-0.641-0.481-0.922-0.878 1 0.519c0.215 0.133 0.79 0.371 1.723 0.719 0.078 0.082 0.16 0.281 0.238 0.601l0.52 1.161-0.359-1.563 2.121 0.883c0.027-0.137 0.172 0.144 0.437 0.84 0.27 0.691 0.629 1.343 1.082 1.957-0.027-0.106-0.187-0.399-0.48-0.879-0.188-0.293-0.305-0.641-0.36-1.039-0.027-0.215-0.039-0.403-0.039-0.563l1.078 0.442c0.321 0.187 0.801 0.414 1.442 0.679l0.398 0.879c0.16 0.297 0.469 0.696 0.922 1.203l0.68 0.68-0.84-1.043c-0.188-0.266-0.336-0.586-0.441-0.957z" inkscape:connector-curvature="0"/>
      <path id="path58" style="fill-rule:evenodd;fill:#a3b33f" d="m26.938 26.15 3.398 1.52-2.84-1.52c-0.934-0.48-1.984-0.984-3.16-1.519-1.625-0.696-2.758-1.188-3.398-1.481-1.122-0.504-1.895-0.945-2.321-1.32-0.347-0.348-0.652-0.613-0.922-0.801-0.347-0.558-0.453-0.558-0.32 0 0.187 0.856 1.254 1.629 3.203 2.321 1.254 0.402 3.371 1.335 6.36 2.8z" inkscape:connector-curvature="0"/>
      <path id="path60" style="fill-rule:evenodd;fill:#a3b33f" d="m15.738 20.83c0.321 0.348 0.84 0.883 1.559 1.602 0.586 0.773 1.012 1.824 1.281 3.16 0.399 2.054 0.84 3.707 1.32 4.961-0.429-1.575-0.695-2.84-0.8-3.801-0.403-2.906-1.176-4.801-2.321-5.68-0.64-0.535-1.015-0.734-1.121-0.601l0.082 0.359z" inkscape:connector-curvature="0"/>
      <g id="g62">
        <g id="g64">
          <g id="g70">
            <path id="path78" style="fill-rule:evenodd;fill:url(#radialGradient72)" d="m9.695 23.912c3.789 0.828 7.387-0.32 10.801-3.441 3.496-3.2 4.785-6.758 3.879-10.68-0.906-3.895-2.918-6.652-6.039-8.281-2.133-1.149-4.504-1.641-7.117-1.481-2.082 0.133-3.707 0.547-4.883 1.242-1.465 0.879-2.895 2.481-4.277 4.801-2.215 3.731-2.641 7.344-1.282 10.84 1.387 3.652 4.36 5.984 8.918 7z" inkscape:connector-curvature="0"/>
          </g>
        </g>
      </g>
      <g id="g80">
        <g id="g96" mask="url(#mask88)">
          <g id="g118">
            <g id="g120" clip-path="url(#clipPath100)">
              <g id="g122" transform="translate(0 -.31452)">
                <g id="g126">
                  <g id="g128" clip-path="url(#clipPath104)">
                    <g id="g130">
                      <g id="g132">
                        <g id="g134">
                          <g id="g136">
                            <path id="path138" style="fill-rule:evenodd;fill:url(#radialGradient112)" d="m22.098 8.305c-0.481-1.145-1.055-1.602-1.723-1.36-0.637 0.215-0.84 0.719-0.598 1.52 0.239 0.828 0.785 1.293 1.641 1.398 0.934 0.11 1.16-0.41 0.68-1.558z" inkscape:connector-curvature="0"/>
                          </g>
                        </g>
                      </g>
                    </g>
                  </g>
                </g>
              </g>
            </g>
          </g>
        </g>
      </g>
      <g id="g140">
        <g id="g156" mask="url(#mask148)">
          <g id="g178">
            <g id="g180" clip-path="url(#clipPath160)">
              <g id="g182" transform="translate(0 -.31452)">
                <g id="g186">
                  <g id="g188" clip-path="url(#clipPath164)">
                    <g id="g190">
                      <g id="g192">
                        <g id="g194">
                          <g id="g196">
                            <path id="path198" style="fill-rule:evenodd;fill:url(#radialGradient172)" d="m19.855 10.824c0.215-0.586-0.023-0.945-0.718-1.078-0.641-0.105-0.946 0.078-0.922 0.559 0 0.453 0.16 0.761 0.48 0.922 0.563 0.32 0.95 0.187 1.16-0.403z" inkscape:connector-curvature="0"/>
                          </g>
                        </g>
                      </g>
                    </g>
                  </g>
                </g>
              </g>
            </g>
          </g>
        </g>
      </g>
      <g id="g200">
        <g id="g216" mask="url(#mask208)">
          <g id="g238">
            <g id="g240" clip-path="url(#clipPath220)">
              <g id="g242" transform="translate(0 -.31452)">
                <g id="g246">
                  <g id="g248" clip-path="url(#clipPath224)">
                    <g id="g250">
                      <g id="g252">
                        <g id="g254">
                          <g id="g256">
                            <path id="path258" style="fill-rule:evenodd;fill:url(#radialGradient232)" d="m17.977 18.426c1.039 0 1.812-0.453 2.32-1.36 0.508-0.882 0.465-1.453-0.121-1.722-0.879-0.399-1.895 0-3.039 1.203-0.348 0.398-0.442 0.812-0.282 1.238 0.133 0.426 0.508 0.641 1.122 0.641z" inkscape:connector-curvature="0"/>
                          </g>
                        </g>
                      </g>
                    </g>
                  </g>
                </g>
              </g>
            </g>
          </g>
        </g>
      </g>
      <g id="g260">
        <g id="g276" mask="url(#mask268)">
          <g id="g298">
            <g id="g300" clip-path="url(#clipPath280)">
              <g id="g302" transform="translate(0 -.31452)">
                <g id="g306">
                  <g id="g308" clip-path="url(#clipPath284)">
                    <g id="g310">
                      <g id="g312">
                        <g id="g314">
                          <g id="g316">
                            <path id="path318" style="fill-rule:evenodd;fill:url(#radialGradient292)" d="m23.336 14.824c0.055-1.094-0.266-1.574-0.961-1.437-0.586 0.105-0.906 0.613-0.957 1.519-0.055 0.852 0.105 1.321 0.48 1.399 0.879 0.105 1.36-0.387 1.438-1.481z" inkscape:connector-curvature="0"/>
                          </g>
                        </g>
                      </g>
                    </g>
                  </g>
                </g>
              </g>
            </g>
          </g>
        </g>
      </g>
      <g id="g320">
        <g id="g336" mask="url(#mask328)">
          <g id="g358">
            <g id="g360" clip-path="url(#clipPath340)">
              <g id="g362" transform="translate(0 -.31452)">
                <g id="g366">
                  <g id="g368" clip-path="url(#clipPath344)">
                    <g id="g370">
                      <g id="g372">
                        <g id="g374">
                          <g id="g376">
                            <path id="path378" style="fill-rule:evenodd;fill:url(#radialGradient352)" d="m11.977 17.023c0.828-0.16 1.093-0.531 0.8-1.117-0.293-0.613-0.773-0.84-1.441-0.679-0.641 0.105-0.852 0.464-0.641 1.078 0.243 0.586 0.668 0.828 1.282 0.718z" inkscape:connector-curvature="0"/>
                          </g>
                        </g>
                      </g>
                    </g>
                  </g>
                </g>
              </g>
            </g>
          </g>
        </g>
      </g>
      <g id="g380">
        <g id="g396" mask="url(#mask388)">
          <g id="g418">
            <g id="g420" clip-path="url(#clipPath400)">
              <g id="g422" transform="translate(0 -.31452)">
                <g id="g426">
                  <g id="g428" clip-path="url(#clipPath404)">
                    <g id="g430">
                      <g id="g432">
                        <g id="g434">
                          <g id="g436">
                            <path id="path438" style="fill-rule:evenodd;fill:url(#radialGradient412)" d="m14.215 11.945c0.16-0.668-0.094-1.015-0.758-1.039-0.559-0.027-0.934 0.278-1.121 0.918-0.215 0.641-0.16 0.973 0.16 1 0.961 0.082 1.535-0.211 1.719-0.879z" inkscape:connector-curvature="0"/>
                          </g>
                        </g>
                      </g>
                    </g>
                  </g>
                </g>
              </g>
            </g>
          </g>
        </g>
      </g>
      <g id="g440">
        <g id="g442">
          <g id="g448">
            <path id="path456" style="fill-rule:evenodd;fill:url(#radialGradient450)" d="m8.738 13.393c1.094-0.161 1.84-0.586 2.239-1.282 0.773-1.308 1.199-2 1.281-2.082 0.398-0.398 1.027-0.48 1.879-0.238 0.961 0.266 1.933 0.039 2.922-0.68 0.984-0.722 1.359-1.496 1.117-2.32-0.453-1.52-0.68-2.309-0.68-2.359 0.027-0.403 0.52-0.586 1.481-0.563 0.585 0.027 0.906-0.144 0.961-0.519 0.054-0.344-0.149-0.774-0.602-1.278-2.32-1.551-5.027-2.226-8.117-2.043-2.082 0.133-3.707 0.547-4.883 1.242-1.465 0.879-2.895 2.481-4.277 4.801-1.282 2.211-1.95 4.465-2 6.758 0.398 0.668 0.851 1 1.359 1 0.48-0.027 0.824-0.375 1.039-1.039 0.293-0.988 0.785-1.469 1.481-1.441 0.664 0.027 1.359 0.441 2.078 1.242 0.695 0.718 1.601 0.988 2.722 0.801z" inkscape:connector-curvature="0"/>
          </g>
        </g>
      </g>
      <g id="g458">
        <g id="g474" mask="url(#mask466)">
          <g id="g496">
            <g id="g498" clip-path="url(#clipPath478)">
              <g id="g500" transform="translate(0 -.31452)">
                <g id="g504">
                  <g id="g506" clip-path="url(#clipPath482)">
                    <g id="g508">
                      <g id="g510">
                        <g id="g512">
                          <g id="g514">
                            <path id="path516" style="fill-rule:evenodd;fill:url(#radialGradient490)" d="m16.578 6.145c1.145-1.813 1.453-3.399 0.918-4.758-0.801-0.297-1.441-0.508-1.918-0.641 0.559 0.481 0.84 1.066 0.84 1.758 0 0.641-0.242 1.574-0.723 2.801-0.398 1.039-1.304 2.105-2.718 3.199-0.719 0.562-1.399 1.016-2.039 1.359 0.773-0.343 1.585-0.746 2.437-1.199 1.707-0.961 2.773-1.801 3.203-2.519z" inkscape:connector-curvature="0"/>
                          </g>
                        </g>
                      </g>
                    </g>
                  </g>
                </g>
              </g>
            </g>
          </g>
        </g>
      </g>
      <g id="g518">
        <g id="g534" mask="url(#mask526)">
          <g id="g556">
            <g id="g558" clip-path="url(#clipPath538)">
              <g id="g560" transform="translate(0 -.31452)">
                <g id="g564">
                  <g id="g566" clip-path="url(#clipPath542)">
                    <g id="g568">
                      <g id="g570">
                        <g id="g572">
                          <g id="g574">
                            <path id="path576" style="fill-rule:evenodd;fill:url(#radialGradient550)" d="m2.418 10.227c-0.457-0.243-0.906-0.84-1.363-1.801l-0.438 1.359c0.824 0.559 1.613 0.922 2.36 1.082 0.375 0.078 0.668 0.106 0.878 0.078l-1.437-0.718z" inkscape:connector-curvature="0"/>
                          </g>
                        </g>
                      </g>
                    </g>
                  </g>
                </g>
              </g>
            </g>
          </g>
        </g>
      </g>
      <g id="g578">
        <g id="g594" mask="url(#mask586)">
          <g id="g616">
            <g id="g618" clip-path="url(#clipPath598)">
              <g id="g620" transform="translate(0 -.31452)">
                <g id="g624">
                  <g id="g626" clip-path="url(#clipPath602)">
                    <g id="g628">
                      <g id="g630">
                        <g id="g632">
                          <g id="g634">
                            <path id="path636" style="fill-rule:evenodd;fill:url(#radialGradient610)" d="m13.977 5.266c1.093-1.575 1.32-3.133 0.679-4.68-1.094-0.215-2.199-0.293-3.32-0.242 1.254 0.375 1.988 1.254 2.199 2.64 0.16 1.039-0.504 2.266-2 3.68-0.746 0.695-1.504 1.293-2.277 1.801 0.426 0 0.933-0.133 1.519-0.399 1.2-0.535 2.266-1.468 3.2-2.8z" inkscape:connector-curvature="0"/>
                          </g>
                        </g>
                      </g>
                    </g>
                  </g>
                </g>
              </g>
            </g>
          </g>
        </g>
      </g>
      <g id="g638">
        <g id="g654" mask="url(#mask646)">
          <g id="g676">
            <g id="g678" clip-path="url(#clipPath658)">
              <g id="g680" transform="translate(0 -.31452)">
                <g id="g684">
                  <g id="g686" clip-path="url(#clipPath662)">
                    <g id="g688">
                      <g id="g690">
                        <g id="g692">
                          <g id="g694">
                            <path id="path696" style="fill-rule:evenodd;fill:url(#radialGradient670)" d="m2.336 5.906-0.641 1.16 0.36 0.559c0.828 1.094 1.933 1.762 3.32 2 0.695 0.105 1.309 0.121 1.84 0.039l-2.84-1c-1.305-0.476-1.984-1.398-2.039-2.758z" inkscape:connector-curvature="0"/>
                          </g>
                        </g>
                      </g>
                    </g>
                  </g>
                </g>
              </g>
            </g>
          </g>
        </g>
      </g>
      <g id="g698">
        <g id="g714" mask="url(#mask706)">
          <g id="g726">
            <g id="g728" clip-path="url(#clipPath718)">
              <g id="g730" transform="translate(0 -.31452)">
                <g id="g734">
                  <g id="g736" clip-path="url(#clipPath722)">
                    <g id="g738">
                      <path id="path740" style="fill-rule:evenodd;fill:#ffffff" d="m6.938 22.305c1.624 0.32 2.64-0.133 3.039-1.36 0.32-1.066 0.148-2.465-0.52-4.199-0.668-1.68-1.547-3.043-2.641-4.082-1.226-1.117-2.347-1.437-3.359-0.961-2.266 1.121-2.785 3.094-1.562 5.922 1.203 2.695 2.882 4.254 5.043 4.68z" inkscape:connector-curvature="0"/>
                    </g>
                  </g>
                </g>
              </g>
            </g>
          </g>
        </g>
      </g>
      <path id="path742" style="fill-rule:evenodd;fill:#8f824d" d="m6.375 5.189 1.203-0.398-0.48 0.121c-0.293 0.078-0.696 0.066-1.203-0.039-0.559-0.137-0.918-0.336-1.079-0.602-0.32-0.507 0.094-1.199 1.239-2.082 0.668-0.531 1.507-1 2.523-1.398l-0.402 0.039c-0.348 0.027-0.906 0.266-1.68 0.719-0.984 0.562-1.641 1.148-1.961 1.761-0.344 0.668-0.265 1.2 0.242 1.602 0.453 0.371 0.985 0.465 1.598 0.277z" inkscape:connector-curvature="0"/>
      <path id="path744" style="fill-rule:evenodd;fill:#8f824d" d="m8.336 4.393 0.723-0.204c0.558-0.16 1-0.359 1.316-0.597 0.773-0.614 1.027-1.215 0.762-1.801-0.215-0.453-0.762-0.668-1.641-0.641 0.988 0.028 1.375 0.399 1.16 1.121-0.187 0.641-0.625 1.184-1.32 1.641l-1 0.481z" inkscape:connector-curvature="0"/>
      <path id="path746" style="fill-rule:evenodd;fill:#8f824d" d="m7.258 3.791c0.957-0.133 1.574-0.426 1.84-0.879 0.453-0.801 0.199-1.254-0.762-1.363-0.586-0.051-1.16 0.136-1.719 0.562-0.508 0.371-0.785 0.707-0.84 1-0.054 0.266 0.028 0.465 0.239 0.598 0.265 0.137 0.679 0.164 1.242 0.082z" inkscape:connector-curvature="0"/>
      <path id="path748" style="fill-rule:evenodd;fill:#c9b570" d="m7.137 3.471c0.64-0.078 1.093-0.282 1.359-0.598 0.215-0.27 0.242-0.469 0.082-0.602-0.242-0.242-0.59-0.32-1.043-0.242-0.426 0.082-0.746 0.27-0.957 0.563-0.215 0.293-0.242 0.519-0.082 0.679 0.133 0.161 0.348 0.227 0.641 0.2z" inkscape:connector-curvature="0"/>
      <g id="g750">
        <g id="g766" mask="url(#mask758)">
          <g id="g778">
            <g id="g780" clip-path="url(#clipPath770)">
              <g id="g782" transform="translate(0 -.31452)">
                <g id="g786">
                  <g id="g788" clip-path="url(#clipPath774)">
                    <g id="g790">
                      <path id="path792" style="fill-rule:evenodd;fill:#ffffff" d="m6.137 19.664c0.187-0.426 0.172-0.984-0.039-1.68-0.563-1.812-1.52-2.558-2.883-2.238-0.586 0.133-0.664 0.785-0.238 1.957 0.425 1.176 1.093 1.949 2 2.32 0.585 0.215 0.972 0.094 1.16-0.359z" inkscape:connector-curvature="0"/>
                    </g>
                  </g>
                </g>
              </g>
            </g>
          </g>
        </g>
      </g>
    </g>
  </g>
<metadata><rdf:RDF><cc:Work><dc:format>image/svg+xml</dc:format><dc:type rdf:resource="http://purl.org/dc/dcmitype/StillImage"/><cc:license rdf:resource="http://creativecommons.org/licenses/publicdomain/"/><dc:publisher><cc:Agent rdf:about="http://openclipart.org/"><dc:title>Openclipart</dc:title></cc:Agent></dc:publisher></cc:Work><cc:License rdf:about="http://creativecommons.org/licenses/publicdomain/"><cc:permits rdf:resource="http://creativecommons.org/ns#Reproduction"/><cc:permits rdf:resource="http://creativecommons.org/ns#Distribution"/><cc:permits rdf:resource="http://creativecommons.org/ns#DerivativeWorks"/></cc:License></rdf:RDF></metadata></svg>
